<svg width="208" height="90" viewBox="0 0 208 90" fill="none" xmlns="http://www.w3.org/2000/svg">
<path d="M27.7861 20.736C27.7861 24.7253 26.3921 27.8307 23.6041 30.052C21.5641 31.684 18.8328 32.5 15.4101 32.5C15.3195 32.5 14.9115 32.4887 14.1861 32.466C13.4835 32.4433 12.4521 32.432 11.0921 32.432H9.39212L6.70612 32.466C6.54745 32.4887 6.37745 32.5 6.19612 32.5C5.76545 32.5 5.55012 32.3867 5.55012 32.16C5.55012 31.956 5.91278 31.854 6.63812 31.854C7.56745 31.854 8.14545 31.684 8.37212 31.344C8.46278 31.1853 8.50812 30.7547 8.50812 30.052V11.726C8.50812 10.6153 8.41745 9.96933 8.23612 9.788C8.07745 9.60666 7.49945 9.516 6.50212 9.516C5.98078 9.516 5.72012 9.39133 5.72012 9.142C5.72012 8.96067 5.91278 8.87 6.29812 8.87C6.27545 8.87 6.52478 8.88133 7.04612 8.904C7.56745 8.92667 8.07745 8.938 8.57612 8.938H12.2141C16.2941 8.938 19.1841 9.22133 20.8841 9.788C22.9468 10.468 24.6128 11.8167 25.8821 13.834C27.1515 15.8287 27.7861 18.1293 27.7861 20.736ZM23.9781 20.6C23.9781 16.8373 23.2415 14.0833 21.7681 12.338C20.2948 10.57 17.9941 9.686 14.8661 9.686C13.3475 9.686 12.4295 9.84467 12.1121 10.162C11.9761 10.3207 11.9081 10.8647 11.9081 11.794V29.882C11.9081 30.5167 11.9195 30.902 11.9421 31.038C11.9875 31.174 12.0895 31.2873 12.2481 31.378C12.7921 31.65 13.9368 31.786 15.6821 31.786C18.1301 31.786 20.1021 30.9247 21.5981 29.202C23.1848 27.3887 23.9781 24.5213 23.9781 20.6ZM45.12 32.33C45.12 32.466 44.8933 32.534 44.44 32.534H44.202L42.094 32.466H41.142C40.7567 32.466 40.224 32.4773 39.544 32.5L38.524 32.534L37.912 32.568H37.742C37.334 32.568 37.13 32.4773 37.13 32.296C37.13 32.1147 37.538 32.0127 38.354 31.99C39.3287 31.9673 39.816 31.854 39.816 31.65C39.816 31.6047 39.748 31.3893 39.612 31.004C39.5667 30.8227 39.306 30.0633 38.83 28.726L38.422 27.57H33.56C32.6307 29.9047 32.166 31.2533 32.166 31.616C32.166 31.82 32.302 31.9333 32.574 31.956L33.016 31.99H33.526L33.832 32.024C34.104 32.024 34.24 32.1033 34.24 32.262C34.24 32.4433 34.002 32.534 33.526 32.534C33.458 32.534 33.05 32.5227 32.302 32.5C31.5767 32.4547 30.9307 32.432 30.364 32.432H30.058L29.752 32.466L29.378 32.5H29.31C28.9473 32.5 28.766 32.432 28.766 32.296C28.766 32.1373 28.9133 32.0467 29.208 32.024C29.616 32.0013 29.888 31.9787 30.024 31.956C30.4093 31.888 30.6587 31.786 30.772 31.65C30.908 31.582 31.4633 30.29 32.438 27.774C32.8233 26.754 33.1973 25.802 33.56 24.918C33.696 24.6007 33.7867 24.3627 33.832 24.204C33.8773 24.0453 33.968 23.8073 34.104 23.49C34.4893 22.5607 35.0333 21.1553 35.736 19.274L36.246 17.846L36.484 17.234C36.62 16.894 36.756 16.724 36.892 16.724C36.96 16.724 37.1073 17.0413 37.334 17.676C38.014 19.3307 39.7707 23.7053 42.604 30.8C42.876 31.5027 43.1367 31.8767 43.386 31.922C43.454 31.9447 43.8167 31.9787 44.474 32.024C44.9047 32.0467 45.12 32.1487 45.12 32.33ZM38.218 26.958L36.008 21.144C35.464 22.504 34.716 24.442 33.764 26.958H38.218ZM59.7562 17.302C59.7562 17.4833 59.5069 17.574 59.0082 17.574C58.9402 17.574 58.7815 17.5627 58.5322 17.54H58.1582C57.9542 17.54 57.8295 17.5853 57.7842 17.676C57.7615 17.7667 57.7502 18.0727 57.7502 18.594V31.072C57.7502 31.888 57.7389 32.364 57.7162 32.5C57.6935 32.636 57.5915 32.704 57.4102 32.704C57.1609 32.704 56.3562 31.7633 54.9962 29.882C54.8375 29.6327 54.5882 29.2927 54.2482 28.862C54.2029 28.794 54.0782 28.624 53.8742 28.352C52.7409 26.856 50.6895 24.0453 47.7202 19.92V30.63C47.7202 31.4687 47.8335 31.9107 48.0602 31.956C48.3095 32.0013 48.7515 32.024 49.3862 32.024H49.5222C49.7942 32.024 49.9302 32.1033 49.9302 32.262C49.9302 32.4433 49.6809 32.534 49.1822 32.534C49.0915 32.534 48.7175 32.5113 48.0602 32.466C47.7202 32.4433 47.4142 32.432 47.1422 32.432C46.9155 32.432 46.6889 32.4433 46.4622 32.466C46.0315 32.5113 45.5669 32.534 45.0682 32.534C44.7055 32.534 44.5242 32.4433 44.5242 32.262C44.5242 32.1033 44.7395 32.024 45.1702 32.024H45.4762L45.9182 31.99C46.4622 31.9447 46.7455 31.8427 46.7682 31.684C46.7909 31.5933 46.8022 31.2647 46.8022 30.698V21.348C46.8022 19.648 46.7002 18.628 46.4962 18.288C46.2242 17.8347 45.6915 17.608 44.8982 17.608C44.3315 17.608 44.0482 17.506 44.0482 17.302C44.0482 17.1433 44.1955 17.064 44.4902 17.064H44.6262L46.4962 17.098C46.5869 17.098 46.7342 17.098 46.9382 17.098C47.1649 17.0753 47.3689 17.064 47.5502 17.064H48.8082L56.8322 28.08V18.628C56.8322 18.0613 56.8095 17.7327 56.7642 17.642C56.7189 17.5513 56.5375 17.506 56.2202 17.506C55.9255 17.506 55.6875 17.5173 55.5062 17.54H55.3022C54.8715 17.54 54.6562 17.4493 54.6562 17.268C54.6562 17.1547 54.7582 17.0867 54.9622 17.064C55.1889 17.0413 55.9595 17.03 57.2742 17.03C58.5209 17.03 59.2462 17.0413 59.4502 17.064C59.6542 17.0867 59.7562 17.166 59.7562 17.302ZM67.6309 32.296C67.6309 32.432 67.5289 32.5 67.3249 32.5H66.9849L66.2709 32.466H65.3869C65.2056 32.466 65.0129 32.4547 64.8089 32.432C64.6276 32.432 64.5029 32.432 64.4349 32.432C64.2083 32.432 63.7776 32.4433 63.1429 32.466C62.5309 32.4887 62.0663 32.5 61.7489 32.5H61.6129C61.2276 32.5 61.0349 32.432 61.0349 32.296C61.0349 32.1147 61.2843 32.0127 61.7829 31.99C62.4629 31.9447 62.8143 31.8653 62.8369 31.752C62.8823 31.6387 62.9049 31.1513 62.9049 30.29V19.342C62.9049 18.458 62.8823 17.948 62.8369 17.812C62.7916 17.6533 62.6216 17.5627 62.3269 17.54L61.6469 17.506H61.3069C61.1029 17.506 61.0009 17.4267 61.0009 17.268C61.0009 17.1093 61.1483 17.03 61.4429 17.03C61.4203 17.03 61.4883 17.03 61.6469 17.03C61.8056 17.0527 62.0549 17.064 62.3949 17.064H64.8429C64.9789 17.064 65.1829 17.0527 65.4549 17.03C65.7269 17.03 65.9763 17.03 66.2029 17.03H67.0529C67.4156 17.03 67.5969 17.1207 67.5969 17.302C67.5969 17.438 67.2116 17.5173 66.4409 17.54C66.1236 17.54 65.9309 17.5967 65.8629 17.71C65.7949 17.8007 65.7609 18.1067 65.7609 18.628V31.446C65.7609 31.6727 65.8403 31.82 65.9989 31.888C66.1803 31.956 66.5883 32.0127 67.2229 32.058C67.4949 32.0807 67.6309 32.16 67.6309 32.296ZM82.0889 28.828C82.0889 28.8507 82.0776 28.998 82.0549 29.27C82.0322 29.5193 82.0209 29.746 82.0209 29.95L81.9869 31.888C81.9869 32.1147 81.9982 32.364 82.0209 32.636L76.3769 32.534L69.9169 32.568C69.4409 32.568 69.2029 32.4887 69.2029 32.33C69.2029 32.1487 69.3389 32.058 69.6109 32.058C70.3362 32.058 70.7556 32.0127 70.8689 31.922C71.0049 31.8087 71.0729 31.4347 71.0729 30.8V19.104C71.0729 18.1747 70.9936 17.6873 70.8349 17.642C70.6762 17.574 70.2796 17.54 69.6449 17.54C69.3729 17.54 69.2369 17.4607 69.2369 17.302C69.2369 17.1207 69.3842 17.03 69.6789 17.03H70.4949C70.7216 17.03 70.9482 17.03 71.1749 17.03C71.4242 17.0527 71.5489 17.064 71.5489 17.064H72.3989C72.5122 17.064 73.0789 17.0527 74.0989 17.03C75.1416 17.03 76.3882 17.03 77.8389 17.03H79.8449C80.4342 17.03 80.9216 17.0073 81.3069 16.962V17.2L81.3409 17.71C81.3862 18.05 81.4769 19.07 81.6129 20.77C81.6356 20.8833 81.6469 21.0193 81.6469 21.178C81.6469 21.4727 81.5676 21.62 81.4089 21.62C81.2049 21.62 81.0576 21.3933 80.9669 20.94C80.6496 19.2173 80.0489 18.2087 79.1649 17.914C78.6662 17.7553 77.4876 17.676 75.6289 17.676H73.8949V24.034H74.7109C76.1616 24.034 77.0569 23.9207 77.3969 23.694C77.7369 23.4447 77.9636 22.7873 78.0769 21.722C78.1449 21.0873 78.2809 20.77 78.4849 20.77C78.7116 20.77 78.8249 20.9967 78.8249 21.45C78.8249 21.722 78.8022 22.1413 78.7569 22.708C78.7342 23.2747 78.7229 23.7053 78.7229 24C78.7229 25.4733 78.7569 26.482 78.8249 27.026C78.8476 27.2073 78.8589 27.3547 78.8589 27.468C78.8589 27.8307 78.7456 28.012 78.5189 28.012C78.3149 28.012 78.1789 27.7287 78.1109 27.162C77.9749 25.938 77.7482 25.2127 77.4309 24.986C77.1136 24.7367 76.2182 24.612 74.7449 24.612H73.8949V31.956C77.2269 31.9333 79.1876 31.8427 79.7769 31.684C80.6836 31.4347 81.2162 30.3467 81.3749 28.42C81.3976 28.08 81.5222 27.91 81.7489 27.91C81.9756 27.91 82.0889 28.216 82.0889 28.828ZM96.4026 29.44C96.4026 30.7093 96.38 31.7747 96.3346 32.636C96.1986 32.6587 96.0286 32.67 95.8246 32.67C95.802 32.67 95.6206 32.6473 95.2806 32.602C94.9633 32.5793 94.544 32.568 94.0226 32.568L92.4246 32.534L86.6106 32.466L83.8226 32.5C83.528 32.5 83.3806 32.4207 83.3806 32.262C83.3806 32.126 83.8226 32.024 84.7066 31.956C84.956 31.9333 85.1033 31.8767 85.1486 31.786C85.2166 31.6953 85.2506 31.446 85.2506 31.038V19.648C85.2506 18.3787 85.1486 17.71 84.9446 17.642C84.854 17.5967 84.65 17.574 84.3326 17.574C84.038 17.574 83.8453 17.5627 83.7546 17.54C83.5053 17.54 83.3806 17.4493 83.3806 17.268C83.3806 17.1093 83.528 17.03 83.8226 17.03L88.5146 17.064C88.764 17.0413 89.0246 17.03 89.2966 17.03C89.7273 17.03 89.9426 17.132 89.9426 17.336C89.9426 17.472 89.5686 17.5513 88.8206 17.574C88.458 17.5967 88.2426 17.676 88.1746 17.812C88.1066 17.948 88.0726 18.4353 88.0726 19.274V31.888C88.9793 31.9107 89.6366 31.922 90.0446 31.922C92.4926 31.922 94.0226 31.684 94.6346 31.208C95.1333 30.8227 95.4506 30.0067 95.5866 28.76C95.632 28.216 95.7566 27.944 95.9606 27.944C96.2553 27.944 96.4026 28.4427 96.4026 29.44ZM126.343 25.326C126.343 25.5073 126.071 25.598 125.527 25.598C124.303 25.598 123.623 25.7793 123.487 26.142C123.397 26.3913 123.351 27.3773 123.351 29.1V30.188C122.173 31.1853 121.051 31.888 119.985 32.296C118.92 32.704 117.639 32.908 116.143 32.908C112.562 32.908 109.717 31.8427 107.609 29.712C105.501 27.5587 104.447 24.646 104.447 20.974C104.447 17.2567 105.479 14.2533 107.541 11.964C109.604 9.67467 112.324 8.53 115.701 8.53C117.175 8.53 118.784 8.938 120.529 9.754C121.051 10.0033 121.481 10.128 121.821 10.128C122.252 10.128 122.535 9.856 122.671 9.312C122.785 8.99467 122.921 8.836 123.079 8.836C123.261 8.836 123.351 8.938 123.351 9.142C123.351 9.16467 123.329 9.38 123.283 9.788C123.125 11.1253 123.057 12.1113 123.079 12.746L123.113 14.582C123.136 15.5113 123.125 16.0893 123.079 16.316C123.034 16.5427 122.909 16.656 122.705 16.656C122.501 16.656 122.388 16.4973 122.365 16.18C122.252 14.004 121.617 12.2927 120.461 11.046C119.305 9.77667 117.787 9.142 115.905 9.142C113.548 9.142 111.678 10.196 110.295 12.304C108.935 14.3893 108.255 17.2453 108.255 20.872C108.255 24.3853 108.947 27.1733 110.329 29.236C111.735 31.276 113.627 32.296 116.007 32.296C117.821 32.296 119.067 31.7747 119.747 30.732C120.087 30.2107 120.257 29.27 120.257 27.91C120.257 26.7767 120.144 26.108 119.917 25.904C119.713 25.7 118.977 25.6093 117.707 25.632C117.39 25.632 117.186 25.6207 117.095 25.598C117.005 25.5527 116.959 25.4733 116.959 25.36C116.959 25.1107 117.209 24.986 117.707 24.986H118.319C118.818 25.054 120.065 25.0767 122.059 25.054L124.779 25.02C124.938 25.02 125.108 25.0087 125.289 24.986C125.471 24.986 125.595 24.986 125.663 24.986C126.117 24.986 126.343 25.0993 126.343 25.326ZM141.509 32.33C141.509 32.466 141.282 32.534 140.829 32.534H140.591L138.483 32.466H137.531C137.145 32.466 136.613 32.4773 135.933 32.5L134.913 32.534L134.301 32.568H134.131C133.723 32.568 133.519 32.4773 133.519 32.296C133.519 32.1147 133.927 32.0127 134.743 31.99C135.717 31.9673 136.205 31.854 136.205 31.65C136.205 31.6047 136.137 31.3893 136.001 31.004C135.955 30.8227 135.695 30.0633 135.219 28.726L134.811 27.57H129.949C129.019 29.9047 128.555 31.2533 128.555 31.616C128.555 31.82 128.691 31.9333 128.963 31.956L129.405 31.99H129.915L130.221 32.024C130.493 32.024 130.629 32.1033 130.629 32.262C130.629 32.4433 130.391 32.534 129.915 32.534C129.847 32.534 129.439 32.5227 128.691 32.5C127.965 32.4547 127.319 32.432 126.753 32.432H126.447L126.141 32.466L125.767 32.5H125.699C125.336 32.5 125.155 32.432 125.155 32.296C125.155 32.1373 125.302 32.0467 125.597 32.024C126.005 32.0013 126.277 31.9787 126.413 31.956C126.798 31.888 127.047 31.786 127.161 31.65C127.297 31.582 127.852 30.29 128.827 27.774C129.212 26.754 129.586 25.802 129.949 24.918C130.085 24.6007 130.175 24.3627 130.221 24.204C130.266 24.0453 130.357 23.8073 130.493 23.49C130.878 22.5607 131.422 21.1553 132.125 19.274L132.635 17.846L132.873 17.234C133.009 16.894 133.145 16.724 133.281 16.724C133.349 16.724 133.496 17.0413 133.723 17.676C134.403 19.3307 136.159 23.7053 138.993 30.8C139.265 31.5027 139.525 31.8767 139.775 31.922C139.843 31.9447 140.205 31.9787 140.863 32.024C141.293 32.0467 141.509 32.1487 141.509 32.33ZM134.607 26.958L132.397 21.144C131.853 22.504 131.105 24.442 130.153 26.958H134.607ZM156.519 17.268C156.519 17.472 156.326 17.5513 155.941 17.506C155.306 17.5287 154.876 17.608 154.649 17.744C154.422 17.8573 154.23 18.118 154.071 18.526L153.867 19.07C152.598 22.2887 150.988 26.584 149.039 31.956C148.858 32.5227 148.676 32.806 148.495 32.806C148.314 32.806 148.132 32.5453 147.951 32.024C147.044 29.5307 145.718 26.04 143.973 21.552C143.746 20.9627 143.418 20.0787 142.987 18.9C142.738 18.1973 142.5 17.7893 142.273 17.676C142.069 17.54 141.525 17.472 140.641 17.472C140.392 17.472 140.267 17.404 140.267 17.268C140.267 17.064 140.426 16.962 140.743 16.962C141.219 16.962 141.65 16.9733 142.035 16.996C142.443 17.0187 143.202 17.03 144.313 17.03C144.517 17.03 144.868 17.0187 145.367 16.996C145.843 16.996 146.194 16.996 146.421 16.996H147.373C147.962 16.996 148.257 17.0867 148.257 17.268C148.257 17.4267 148.087 17.5287 147.747 17.574H147.237L146.489 17.608C145.786 17.6307 145.435 17.7213 145.435 17.88C145.435 17.9707 146.024 19.5573 147.203 22.64C147.248 22.7307 147.951 24.6233 149.311 28.318C149.47 27.8873 149.946 26.6407 150.739 24.578L152.167 20.838C152.824 19.1607 153.153 18.186 153.153 17.914C153.153 17.6873 152.96 17.5627 152.575 17.54L151.793 17.506H151.249C151.068 17.506 150.977 17.4493 150.977 17.336C150.977 17.132 151.306 17.03 151.963 17.03H152.609C152.836 17.03 153.164 17.03 153.595 17.03C154.026 17.0527 154.275 17.064 154.343 17.064C154.456 17.064 154.672 17.0527 154.989 17.03C155.329 17.03 155.635 17.03 155.907 17.03H156.009C156.349 17.03 156.519 17.1093 156.519 17.268ZM163.422 32.296C163.422 32.432 163.32 32.5 163.116 32.5H162.776L162.062 32.466H161.178C160.997 32.466 160.804 32.4547 160.6 32.432C160.419 32.432 160.294 32.432 160.226 32.432C159.999 32.432 159.569 32.4433 158.934 32.466C158.322 32.4887 157.857 32.5 157.54 32.5H157.404C157.019 32.5 156.826 32.432 156.826 32.296C156.826 32.1147 157.075 32.0127 157.574 31.99C158.254 31.9447 158.605 31.8653 158.628 31.752C158.673 31.6387 158.696 31.1513 158.696 30.29V19.342C158.696 18.458 158.673 17.948 158.628 17.812C158.583 17.6533 158.413 17.5627 158.118 17.54L157.438 17.506H157.098C156.894 17.506 156.792 17.4267 156.792 17.268C156.792 17.1093 156.939 17.03 157.234 17.03C157.211 17.03 157.279 17.03 157.438 17.03C157.597 17.0527 157.846 17.064 158.186 17.064H160.634C160.77 17.064 160.974 17.0527 161.246 17.03C161.518 17.03 161.767 17.03 161.994 17.03H162.844C163.207 17.03 163.388 17.1207 163.388 17.302C163.388 17.438 163.003 17.5173 162.232 17.54C161.915 17.54 161.722 17.5967 161.654 17.71C161.586 17.8007 161.552 18.1067 161.552 18.628V31.446C161.552 31.6727 161.631 31.82 161.79 31.888C161.971 31.956 162.379 32.0127 163.014 32.058C163.286 32.0807 163.422 32.16 163.422 32.296ZM179.24 31.684C179.24 32.4093 178.605 32.772 177.336 32.772C176.112 32.772 175.115 32.3073 174.344 31.378C174.004 30.97 173.777 30.562 173.664 30.154C173.551 29.746 173.415 28.7827 173.256 27.264C173.143 26.2893 172.825 25.6093 172.304 25.224C171.805 24.8387 170.933 24.6233 169.686 24.578V31.582C169.618 31.8993 170.196 32.058 171.42 32.058C171.669 32.058 171.794 32.1373 171.794 32.296C171.794 32.4547 171.635 32.534 171.318 32.534C171.069 32.534 170.831 32.5227 170.604 32.5H169.414C168.915 32.5 168.315 32.5113 167.612 32.534C166.932 32.534 166.558 32.534 166.49 32.534H165.844C165.209 32.534 164.892 32.4547 164.892 32.296C164.892 32.1147 165.005 32.024 165.232 32.024C165.3 32.024 165.413 32.0353 165.572 32.058H165.708C166.479 32.058 166.864 31.8993 166.864 31.582V18.152C166.864 17.9027 166.796 17.744 166.66 17.676C166.547 17.5853 166.218 17.54 165.674 17.54C165.153 17.54 164.892 17.4493 164.892 17.268C164.892 17.1093 165.051 17.03 165.368 17.03H165.606C165.969 17.0753 167.045 17.098 168.836 17.098C169.584 17.098 170.196 17.0867 170.672 17.064C171.148 17.0413 171.522 17.03 171.794 17.03C173.313 17.03 174.525 17.3473 175.432 17.982C176.361 18.594 176.826 19.41 176.826 20.43C176.826 21.5407 176.339 22.4473 175.364 23.15C174.389 23.83 173.018 24.2267 171.25 24.34C173.154 24.544 174.457 25.0427 175.16 25.836C175.885 26.6293 176.35 28.0573 176.554 30.12C176.69 31.5253 177.109 32.228 177.812 32.228C177.925 32.228 177.982 32.194 177.982 32.126C177.982 32.1033 177.948 32.0353 177.88 31.922C177.835 31.786 177.812 31.684 177.812 31.616C177.812 31.1853 178.039 30.97 178.492 30.97C178.991 30.97 179.24 31.208 179.24 31.684ZM173.868 20.634C173.868 18.594 172.859 17.574 170.842 17.574C170.321 17.574 169.992 17.6307 169.856 17.744C169.743 17.8347 169.686 18.0727 169.686 18.458V24.034C172.474 24.034 173.868 22.9007 173.868 20.634ZM186.432 32.296C186.432 32.432 186.33 32.5 186.126 32.5H185.786L185.072 32.466H184.188C184.006 32.466 183.814 32.4547 183.61 32.432C183.428 32.432 183.304 32.432 183.236 32.432C183.009 32.432 182.578 32.4433 181.944 32.466C181.332 32.4887 180.867 32.5 180.55 32.5H180.414C180.028 32.5 179.836 32.432 179.836 32.296C179.836 32.1147 180.085 32.0127 180.584 31.99C181.264 31.9447 181.615 31.8653 181.638 31.752C181.683 31.6387 181.706 31.1513 181.706 30.29V19.342C181.706 18.458 181.683 17.948 181.638 17.812C181.592 17.6533 181.422 17.5627 181.128 17.54L180.448 17.506H180.108C179.904 17.506 179.802 17.4267 179.802 17.268C179.802 17.1093 179.949 17.03 180.244 17.03C180.221 17.03 180.289 17.03 180.448 17.03C180.606 17.0527 180.856 17.064 181.196 17.064H183.644C183.78 17.064 183.984 17.0527 184.256 17.03C184.528 17.03 184.777 17.03 185.004 17.03H185.854C186.216 17.03 186.398 17.1207 186.398 17.302C186.398 17.438 186.012 17.5173 185.242 17.54C184.924 17.54 184.732 17.5967 184.664 17.71C184.596 17.8007 184.562 18.1067 184.562 18.628V31.446C184.562 31.6727 184.641 31.82 184.8 31.888C184.981 31.956 185.389 32.0127 186.024 32.058C186.296 32.0807 186.432 32.16 186.432 32.296ZM203.134 32.33C203.134 32.466 202.907 32.534 202.454 32.534H202.216L200.108 32.466H199.156C198.77 32.466 198.238 32.4773 197.558 32.5L196.538 32.534L195.926 32.568H195.756C195.348 32.568 195.144 32.4773 195.144 32.296C195.144 32.1147 195.552 32.0127 196.368 31.99C197.342 31.9673 197.83 31.854 197.83 31.65C197.83 31.6047 197.762 31.3893 197.626 31.004C197.58 30.8227 197.32 30.0633 196.844 28.726L196.436 27.57H191.574C190.644 29.9047 190.18 31.2533 190.18 31.616C190.18 31.82 190.316 31.9333 190.588 31.956L191.03 31.99H191.54L191.846 32.024C192.118 32.024 192.254 32.1033 192.254 32.262C192.254 32.4433 192.016 32.534 191.54 32.534C191.472 32.534 191.064 32.5227 190.316 32.5C189.59 32.4547 188.944 32.432 188.378 32.432H188.072L187.766 32.466L187.392 32.5H187.324C186.961 32.5 186.78 32.432 186.78 32.296C186.78 32.1373 186.927 32.0467 187.222 32.024C187.63 32.0013 187.902 31.9787 188.038 31.956C188.423 31.888 188.672 31.786 188.786 31.65C188.922 31.582 189.477 30.29 190.452 27.774C190.837 26.754 191.211 25.802 191.574 24.918C191.71 24.6007 191.8 24.3627 191.846 24.204C191.891 24.0453 191.982 23.8073 192.118 23.49C192.503 22.5607 193.047 21.1553 193.75 19.274L194.26 17.846L194.498 17.234C194.634 16.894 194.77 16.724 194.906 16.724C194.974 16.724 195.121 17.0413 195.348 17.676C196.028 19.3307 197.784 23.7053 200.618 30.8C200.89 31.5027 201.15 31.8767 201.4 31.922C201.468 31.9447 201.83 31.9787 202.488 32.024C202.918 32.0467 203.134 32.1487 203.134 32.33ZM196.232 26.958L194.022 21.144C193.478 22.504 192.73 24.442 191.778 26.958H196.232Z" fill="#CACAEA"/>
<line x1="85.5" y1="45.75" x2="1.5" y2="45.75" stroke="#CACAEA" stroke-width="0.5"/>
<path d="M99.019 43.0552C98.6821 42.3289 98.5137 41.6514 98.5137 41.0225C98.5137 40.3112 98.7233 39.6523 99.1426 39.0459C99.5618 38.432 100.093 37.9378 100.737 37.5635C101.389 37.1891 102.062 37.002 102.759 37.002C103.537 37.002 104.185 37.2191 104.702 37.6533C105.226 38.0801 105.488 38.5929 105.488 39.1919C105.488 39.6411 105.361 40.0566 105.106 40.4385C104.859 40.8203 104.597 41.0112 104.32 41.0112C104.185 41.0112 104.118 40.9401 104.118 40.7979C104.118 40.7454 104.155 40.6294 104.23 40.4497C104.35 40.1577 104.41 39.862 104.41 39.5625C104.41 39.1133 104.226 38.7502 103.859 38.4731C103.493 38.1886 103.051 38.0464 102.534 38.0464C101.703 38.0464 100.924 38.3908 100.198 39.0796C99.4795 39.7609 99.1201 40.5433 99.1201 41.4268C99.1201 41.8236 99.1725 42.1605 99.2773 42.4375C99.3822 42.707 99.4757 42.883 99.5581 42.9653C99.6479 43.0477 99.7715 43.0889 99.9287 43.0889C100.962 43.0889 101.479 43.3883 101.479 43.9873C101.479 44.137 101.422 44.2793 101.31 44.4141C101.205 44.5488 101.048 44.6162 100.838 44.6162C100.606 44.6162 100.311 44.4627 99.9512 44.1558C99.5693 43.8263 99.195 43.6616 98.8281 43.6616C98.3564 43.6616 97.9072 43.8975 97.4805 44.3691C97.0612 44.8333 96.8516 45.3874 96.8516 46.0312C96.8516 47.2816 97.473 48.4645 98.7158 49.5801C99.9587 50.6882 101.505 51.2422 103.354 51.2422C105.106 51.2422 106.603 50.8079 107.846 49.9395C109.097 49.0635 109.722 48.019 109.722 46.8062C109.722 45.9976 109.415 45.2975 108.801 44.7061C108.187 44.1071 107.356 43.8076 106.308 43.8076C105.462 43.8076 104.705 44.0397 104.039 44.5039C103.38 44.9681 103.051 45.5483 103.051 46.2446C103.051 46.6639 103.171 47.0083 103.41 47.2778C103.65 47.5474 103.897 47.6821 104.151 47.6821C104.443 47.6821 104.589 47.5249 104.589 47.2104L104.578 47.0757C104.571 46.9784 104.567 46.911 104.567 46.8735C104.567 46.5441 104.657 46.2746 104.836 46.0649C105.016 45.8478 105.244 45.7393 105.521 45.7393C105.784 45.7393 106.012 45.8328 106.207 46.02C106.401 46.1997 106.499 46.4543 106.499 46.7837C106.499 47.2554 106.334 47.6484 106.004 47.9629C105.682 48.2773 105.267 48.4346 104.758 48.4346C104.151 48.4346 103.627 48.2212 103.186 47.7944C102.751 47.3602 102.534 46.8286 102.534 46.1997C102.534 45.2788 102.92 44.4403 103.691 43.6841C104.462 42.9279 105.862 42.5498 107.891 42.5498C109.71 42.5498 111.032 42.299 111.855 41.7974C112.679 41.3032 113.091 40.5508 113.091 39.54C113.091 38.9411 112.907 38.4507 112.541 38.0688C112.174 37.6795 111.709 37.4849 111.148 37.4849C110.871 37.4849 110.661 37.526 110.519 37.6084C110.384 37.6833 110.317 37.8031 110.317 37.9678C110.317 38.0726 110.384 38.2223 110.519 38.417C110.691 38.6641 110.777 38.9036 110.777 39.1357C110.777 39.4128 110.669 39.6561 110.452 39.8657C110.242 40.0754 109.98 40.1802 109.666 40.1802C109.291 40.1802 109.007 40.0604 108.812 39.8208C108.617 39.5812 108.52 39.3005 108.52 38.9785C108.52 38.4694 108.767 38.0127 109.261 37.6084C109.763 37.2041 110.399 37.002 111.17 37.002C111.964 37.002 112.623 37.2939 113.147 37.8779C113.679 38.4544 113.944 39.1507 113.944 39.9668C113.944 40.738 113.716 41.4417 113.259 42.0781C112.81 42.7145 112.237 43.1637 111.541 43.4258C110.852 43.6878 109.883 43.8413 108.632 43.8862C109.83 44.7323 110.429 45.8179 110.429 47.1431C110.429 48.1388 110.062 49.1009 109.329 50.0293C108.595 50.9577 107.704 51.6465 106.656 52.0957C105.615 52.5449 104.342 52.7695 102.837 52.7695C101.617 52.7695 100.629 52.6385 99.8726 52.3765C99.1164 52.1069 98.3939 51.7176 97.7051 51.2085C97.0238 50.6994 96.4847 50.078 96.0879 49.3442C95.6986 48.603 95.5039 47.8094 95.5039 46.9634C95.5039 45.9302 95.7996 45.0617 96.3911 44.3579C96.9826 43.6541 97.8586 43.2199 99.019 43.0552Z" fill="#CACAEA"/>
<line x1="205.5" y1="45.75" x2="121.5" y2="45.75" stroke="#CACAEA" stroke-width="0.5"/>
<path d="M14.8562 73.87C14.8562 75.8193 14.1082 77.4853 12.6122 78.868C11.1388 80.228 9.35949 80.908 7.27416 80.908C6.05016 80.908 4.58816 80.534 2.88816 79.786C2.43482 79.582 2.09482 79.48 1.86816 79.48C1.59616 79.48 1.42616 79.8087 1.35816 80.466C1.33549 80.806 1.18816 80.976 0.916156 80.976C0.68949 80.976 0.576156 80.84 0.576156 80.568C0.576156 80.3867 0.58749 80.2507 0.610156 80.16C0.79149 78.7773 0.882156 77.4967 0.882156 76.318C0.882156 76.0913 0.85949 75.4567 0.814156 74.414C0.79149 74.278 0.780156 74.0967 0.780156 73.87C0.780156 73.53 0.916156 73.36 1.18816 73.36C1.41482 73.36 1.57349 73.632 1.66416 74.176C2.25349 78.2107 4.16882 80.228 7.41016 80.228C8.79282 80.228 9.85816 79.8427 10.6062 79.072C11.3768 78.2787 11.7622 77.168 11.7622 75.74C11.7622 74.4707 11.3882 73.394 10.6402 72.51C9.91482 71.6033 8.65682 70.708 6.86616 69.824C4.71282 68.7587 3.21682 67.7273 2.37816 66.73C1.53949 65.7327 1.12016 64.4973 1.12016 63.024C1.12016 61.1427 1.72082 59.59 2.92216 58.366C4.14616 57.142 5.68749 56.53 7.54616 56.53C8.31682 56.53 9.38216 56.7907 10.7422 57.312C11.2182 57.4933 11.5695 57.584 11.7962 57.584C12.0455 57.584 12.2042 57.5387 12.2722 57.448C12.3628 57.3573 12.4422 57.1193 12.5102 56.734C12.5555 56.5073 12.6802 56.394 12.8842 56.394C13.1108 56.394 13.2242 56.53 13.2242 56.802C13.2242 56.9833 13.2128 57.1193 13.1902 57.21C13.1222 57.754 13.0882 58.4113 13.0882 59.182C13.0882 60.27 13.1448 61.1313 13.2582 61.766L13.2922 62.31C13.3148 62.5593 13.2128 62.684 12.9862 62.684C12.7368 62.684 12.5668 62.4233 12.4762 61.902C12.2268 60.5647 11.6375 59.454 10.7082 58.57C9.77882 57.6633 8.73616 57.21 7.58016 57.21C6.44682 57.21 5.54016 57.5727 4.86016 58.298C4.20282 59.0233 3.87416 60.0093 3.87416 61.256C3.87416 62.7067 4.36149 63.874 5.33616 64.758C5.88016 65.2567 7.05882 65.9593 8.87216 66.866C11.0028 67.9313 12.5328 69.0193 13.4622 70.13C14.3915 71.218 14.8562 72.4647 14.8562 73.87ZM29.5118 76.828C29.5118 76.8507 29.5004 76.998 29.4778 77.27C29.4551 77.5193 29.4438 77.746 29.4438 77.95L29.4098 79.888C29.4098 80.1147 29.4211 80.364 29.4438 80.636L23.7998 80.534L17.3398 80.568C16.8638 80.568 16.6258 80.4887 16.6258 80.33C16.6258 80.1487 16.7618 80.058 17.0338 80.058C17.7591 80.058 18.1784 80.0127 18.2918 79.922C18.4278 79.8087 18.4958 79.4347 18.4958 78.8V67.104C18.4958 66.1747 18.4164 65.6873 18.2578 65.642C18.0991 65.574 17.7024 65.54 17.0678 65.54C16.7958 65.54 16.6598 65.4607 16.6598 65.302C16.6598 65.1207 16.8071 65.03 17.1018 65.03H17.9178C18.1444 65.03 18.3711 65.03 18.5978 65.03C18.8471 65.0527 18.9718 65.064 18.9718 65.064H19.8218C19.9351 65.064 20.5018 65.0527 21.5218 65.03C22.5644 65.03 23.8111 65.03 25.2618 65.03H27.2678C27.8571 65.03 28.3444 65.0073 28.7298 64.962V65.2L28.7638 65.71C28.8091 66.05 28.8998 67.07 29.0358 68.77C29.0584 68.8833 29.0698 69.0193 29.0698 69.178C29.0698 69.4727 28.9904 69.62 28.8318 69.62C28.6278 69.62 28.4804 69.3933 28.3898 68.94C28.0724 67.2173 27.4718 66.2087 26.5878 65.914C26.0891 65.7553 24.9104 65.676 23.0518 65.676H21.3178V72.034H22.1338C23.5844 72.034 24.4798 71.9207 24.8197 71.694C25.1598 71.4447 25.3864 70.7873 25.4998 69.722C25.5678 69.0873 25.7038 68.77 25.9078 68.77C26.1344 68.77 26.2478 68.9967 26.2478 69.45C26.2478 69.722 26.2251 70.1413 26.1798 70.708C26.1571 71.2747 26.1458 71.7053 26.1458 72C26.1458 73.4733 26.1798 74.482 26.2478 75.026C26.2704 75.2073 26.2818 75.3547 26.2818 75.468C26.2818 75.8307 26.1684 76.012 25.9418 76.012C25.7378 76.012 25.6018 75.7287 25.5338 75.162C25.3978 73.938 25.1711 73.2127 24.8538 72.986C24.5364 72.7367 23.6411 72.612 22.1678 72.612H21.3178V79.956C24.6498 79.9333 26.6104 79.8427 27.1998 79.684C28.1064 79.4347 28.6391 78.3467 28.7978 76.42C28.8204 76.08 28.9451 75.91 29.1718 75.91C29.3984 75.91 29.5118 76.216 29.5118 76.828ZM43.2475 76.454C43.2475 77.4967 42.8622 78.358 42.0915 79.038C41.3435 79.718 40.3008 80.16 38.9635 80.364C38.1702 80.4773 36.4135 80.534 33.6935 80.534C32.4922 80.534 31.8008 80.5227 31.6195 80.5H31.5515L31.0755 80.534C30.9168 80.5567 30.8375 80.4773 30.8375 80.296C30.8375 80.16 30.8828 80.0807 30.9735 80.058C31.0642 80.0353 31.3362 80.024 31.7895 80.024C32.2428 80.024 32.5035 79.9787 32.5715 79.888C32.6395 79.7973 32.6735 79.514 32.6735 79.038V66.764C32.6735 66.1747 32.6395 65.8347 32.5715 65.744C32.5035 65.6307 32.1408 65.5627 31.4835 65.54C31.0075 65.5173 30.7695 65.438 30.7695 65.302C30.7695 65.1207 31.0188 65.03 31.5175 65.03H32.0955C32.3448 65.03 33.0135 65.0413 34.1015 65.064L35.7335 65.098C37.2975 65.1207 38.2835 65.1547 38.6915 65.2C39.2355 65.2453 39.7342 65.3473 40.1875 65.506C41.8195 66.0953 42.6355 67.1267 42.6355 68.6C42.6355 70.6627 41.0488 71.8867 37.8755 72.272L37.9095 72.374C39.5642 72.3967 40.8675 72.782 41.8195 73.53C42.7715 74.2553 43.2475 75.23 43.2475 76.454ZM39.5755 68.804C39.5755 67.308 39.2355 66.3673 38.5555 65.982C38.1702 65.7553 37.5242 65.642 36.6175 65.642C36.2322 65.642 35.9488 65.6533 35.7675 65.676L35.4955 65.71V72.034C36.7195 72.0113 37.5582 71.898 38.0115 71.694C39.0542 71.218 39.5755 70.2547 39.5755 68.804ZM40.2895 76.182C40.2895 73.7793 38.9295 72.578 36.2095 72.578H35.4955V79.412C35.4955 79.684 35.5522 79.854 35.6655 79.922C35.7788 79.9673 36.1075 79.99 36.6515 79.99C39.0768 79.99 40.2895 78.7207 40.2895 76.182ZM60.1776 80.33C60.1776 80.466 59.951 80.534 59.4976 80.534H59.2596L57.1516 80.466H56.1996C55.8143 80.466 55.2816 80.4773 54.6016 80.5L53.5816 80.534L52.9696 80.568H52.7996C52.3916 80.568 52.1876 80.4773 52.1876 80.296C52.1876 80.1147 52.5956 80.0127 53.4116 79.99C54.3863 79.9673 54.8736 79.854 54.8736 79.65C54.8736 79.6047 54.8056 79.3893 54.6696 79.004C54.6243 78.8227 54.3636 78.0633 53.8876 76.726L53.4796 75.57H48.6176C47.6883 77.9047 47.2236 79.2533 47.2236 79.616C47.2236 79.82 47.3596 79.9333 47.6316 79.956L48.0736 79.99H48.5836L48.8896 80.024C49.1616 80.024 49.2976 80.1033 49.2976 80.262C49.2976 80.4433 49.0596 80.534 48.5836 80.534C48.5156 80.534 48.1076 80.5227 47.3596 80.5C46.6343 80.4547 45.9883 80.432 45.4216 80.432H45.1156L44.8096 80.466L44.4356 80.5H44.3676C44.005 80.5 43.8236 80.432 43.8236 80.296C43.8236 80.1373 43.971 80.0467 44.2656 80.024C44.6736 80.0013 44.9456 79.9787 45.0816 79.956C45.467 79.888 45.7163 79.786 45.8296 79.65C45.9656 79.582 46.521 78.29 47.4956 75.774C47.881 74.754 48.255 73.802 48.6176 72.918C48.7536 72.6007 48.8443 72.3627 48.8896 72.204C48.935 72.0453 49.0256 71.8073 49.1616 71.49C49.547 70.5607 50.091 69.1553 50.7936 67.274L51.3036 65.846L51.5416 65.234C51.6776 64.894 51.8136 64.724 51.9496 64.724C52.0176 64.724 52.165 65.0413 52.3916 65.676C53.0716 67.3307 54.8283 71.7053 57.6616 78.8C57.9336 79.5027 58.1943 79.8767 58.4436 79.922C58.5116 79.9447 58.8743 79.9787 59.5316 80.024C59.9623 80.0467 60.1776 80.1487 60.1776 80.33ZM53.2756 74.958L51.0656 69.144C50.5216 70.504 49.7736 72.442 48.8216 74.958H53.2756ZM70.7338 76.148C70.7338 77.4173 70.1898 78.5053 69.1018 79.412C68.0138 80.3187 66.6992 80.772 65.1578 80.772C64.0018 80.772 62.8118 80.4093 61.5878 79.684C61.4518 79.6387 61.3612 79.616 61.3158 79.616C61.1798 79.616 61.1005 79.7293 61.0778 79.956C61.0552 80.1827 61.0212 80.3753 60.9758 80.534C60.9305 80.7153 60.8172 80.806 60.6358 80.806C60.4092 80.806 60.2958 80.6927 60.2958 80.466C60.2958 80.4207 60.3298 80.0807 60.3978 79.446C60.4658 78.8113 60.4998 78.2673 60.4998 77.814C60.4998 77.61 60.4885 77.3267 60.4658 76.964C60.4432 76.5787 60.4318 76.284 60.4318 76.08C60.4318 75.6493 60.5452 75.434 60.7718 75.434C60.9985 75.434 61.1685 75.7853 61.2818 76.488C61.7125 78.9813 63.0498 80.228 65.2938 80.228C67.1978 80.228 68.1498 79.276 68.1498 77.372C68.1498 76.5333 67.9232 75.8533 67.4698 75.332C67.0165 74.8107 66.1325 74.2213 64.8178 73.564C63.0952 72.7027 61.9958 72.0227 61.5198 71.524C60.9078 70.8667 60.6018 70.0507 60.6018 69.076C60.6018 67.8293 61.0552 66.8093 61.9618 66.016C62.8685 65.2 64.0132 64.792 65.3958 64.792C66.2572 64.792 67.1752 65.0527 68.1498 65.574C68.2632 65.642 68.3538 65.676 68.4218 65.676C68.5805 65.676 68.6825 65.5173 68.7278 65.2C68.7732 64.86 68.9092 64.69 69.1358 64.69C69.3625 64.69 69.4758 64.8033 69.4758 65.03C69.4758 65.0753 69.4645 65.166 69.4418 65.302C69.3965 65.6647 69.3738 66.1293 69.3738 66.696C69.3738 67.036 69.4078 67.648 69.4758 68.532C69.4985 68.6227 69.5098 68.7247 69.5098 68.838C69.5098 69.11 69.4192 69.246 69.2378 69.246C69.0338 69.246 68.8865 69.042 68.7958 68.634C68.5918 67.6367 68.1725 66.8433 67.5378 66.254C66.9258 65.642 66.2005 65.336 65.3618 65.336C63.7298 65.336 62.9138 66.2087 62.9138 67.954C62.9138 68.7247 63.1292 69.3593 63.5598 69.858C63.7865 70.13 64.0358 70.3453 64.3078 70.504C64.5798 70.6627 65.3732 71.0593 66.6878 71.694C68.1612 72.4193 69.2038 73.122 69.8158 73.802C70.4278 74.4593 70.7338 75.2413 70.7338 76.148ZM85.5002 69.28C85.5002 69.5973 85.3642 69.756 85.0922 69.756C84.7975 69.756 84.6389 69.5407 84.6162 69.11C84.5482 68.1807 84.3555 67.4213 84.0382 66.832C83.6075 66.016 82.6215 65.608 81.0802 65.608C80.8535 65.608 80.5022 65.6193 80.0262 65.642V79.31C80.0262 79.7407 80.3549 79.9673 81.0122 79.99C81.6695 80.0127 81.9982 80.1033 81.9982 80.262C81.9982 80.4207 81.8055 80.5 81.4202 80.5H81.1822C80.9782 80.5 80.6609 80.4887 80.2302 80.466C79.7995 80.466 79.4935 80.466 79.3122 80.466C79.2669 80.466 79.0062 80.466 78.5302 80.466C78.0542 80.4887 77.4422 80.5 76.6942 80.5H75.8782C75.4249 80.5 75.1982 80.4207 75.1982 80.262C75.1982 80.1033 75.5722 80.0127 76.3202 79.99C76.5922 79.99 76.7735 79.9673 76.8642 79.922C77.0455 79.8767 77.1475 79.7633 77.1702 79.582C77.1929 79.378 77.2042 78.8 77.2042 77.848V65.642C75.4362 65.6193 74.2802 65.8007 73.7362 66.186C73.2149 66.5713 72.8635 67.478 72.6822 68.906C72.6142 69.4273 72.4669 69.688 72.2402 69.688C72.0362 69.688 71.9342 69.4273 71.9342 68.906C71.9342 68.2487 72.0362 66.9567 72.2402 65.03L80.1622 65.098C80.8649 65.098 82.2929 65.0753 84.4462 65.03C84.6275 65.03 84.8655 64.9847 85.1602 64.894L85.1942 65.608L85.2962 66.832L85.3982 68.26L85.4662 68.872C85.4889 69.076 85.5002 69.212 85.5002 69.28ZM93.2803 80.296C93.2803 80.432 93.1783 80.5 92.9743 80.5H92.6343L91.9203 80.466H91.0363C90.855 80.466 90.6623 80.4547 90.4583 80.432C90.277 80.432 90.1523 80.432 90.0843 80.432C89.8577 80.432 89.427 80.4433 88.7923 80.466C88.1803 80.4887 87.7157 80.5 87.3983 80.5H87.2623C86.877 80.5 86.6843 80.432 86.6843 80.296C86.6843 80.1147 86.9337 80.0127 87.4323 79.99C88.1123 79.9447 88.4637 79.8653 88.4863 79.752C88.5317 79.6387 88.5543 79.1513 88.5543 78.29V67.342C88.5543 66.458 88.5317 65.948 88.4863 65.812C88.441 65.6533 88.271 65.5627 87.9763 65.54L87.2963 65.506H86.9563C86.7523 65.506 86.6503 65.4267 86.6503 65.268C86.6503 65.1093 86.7977 65.03 87.0923 65.03C87.0697 65.03 87.1377 65.03 87.2963 65.03C87.455 65.0527 87.7043 65.064 88.0443 65.064H90.4923C90.6283 65.064 90.8323 65.0527 91.1043 65.03C91.3763 65.03 91.6257 65.03 91.8523 65.03H92.7023C93.065 65.03 93.2463 65.1207 93.2463 65.302C93.2463 65.438 92.861 65.5173 92.0903 65.54C91.773 65.54 91.5803 65.5967 91.5123 65.71C91.4443 65.8007 91.4103 66.1067 91.4103 66.628V79.446C91.4103 79.6727 91.4897 79.82 91.6483 79.888C91.8297 79.956 92.2377 80.0127 92.8723 80.058C93.1443 80.0807 93.2803 80.16 93.2803 80.296ZM109.982 80.33C109.982 80.466 109.756 80.534 109.302 80.534H109.064L106.956 80.466H106.004C105.619 80.466 105.086 80.4773 104.406 80.5L103.386 80.534L102.774 80.568H102.604C102.196 80.568 101.992 80.4773 101.992 80.296C101.992 80.1147 102.4 80.0127 103.216 79.99C104.191 79.9673 104.678 79.854 104.678 79.65C104.678 79.6047 104.61 79.3893 104.474 79.004C104.429 78.8227 104.168 78.0633 103.692 76.726L103.284 75.57H98.4223C97.493 77.9047 97.0283 79.2533 97.0283 79.616C97.0283 79.82 97.1643 79.9333 97.4363 79.956L97.8783 79.99H98.3883L98.6943 80.024C98.9663 80.024 99.1023 80.1033 99.1023 80.262C99.1023 80.4433 98.8643 80.534 98.3883 80.534C98.3203 80.534 97.9123 80.5227 97.1643 80.5C96.439 80.4547 95.793 80.432 95.2263 80.432H94.9203L94.6143 80.466L94.2403 80.5H94.1723C93.8096 80.5 93.6283 80.432 93.6283 80.296C93.6283 80.1373 93.7756 80.0467 94.0703 80.024C94.4783 80.0013 94.7503 79.9787 94.8863 79.956C95.2716 79.888 95.521 79.786 95.6343 79.65C95.7703 79.582 96.3256 78.29 97.3003 75.774C97.6856 74.754 98.0596 73.802 98.4223 72.918C98.5583 72.6007 98.649 72.3627 98.6943 72.204C98.7396 72.0453 98.8303 71.8073 98.9663 71.49C99.3516 70.5607 99.8956 69.1553 100.598 67.274L101.108 65.846L101.346 65.234C101.482 64.894 101.618 64.724 101.754 64.724C101.822 64.724 101.97 65.0413 102.196 65.676C102.876 67.3307 104.633 71.7053 107.466 78.8C107.738 79.5027 107.999 79.8767 108.248 79.922C108.316 79.9447 108.679 79.9787 109.336 80.024C109.767 80.0467 109.982 80.1487 109.982 80.33ZM103.08 74.958L100.87 69.144C100.326 70.504 99.5783 72.442 98.6263 74.958H103.08ZM124.619 65.302C124.619 65.4833 124.369 65.574 123.871 65.574C123.803 65.574 123.644 65.5627 123.395 65.54H123.021C122.817 65.54 122.692 65.5853 122.647 65.676C122.624 65.7667 122.613 66.0727 122.613 66.594V79.072C122.613 79.888 122.601 80.364 122.579 80.5C122.556 80.636 122.454 80.704 122.273 80.704C122.023 80.704 121.219 79.7633 119.859 77.882C119.7 77.6327 119.451 77.2927 119.111 76.862C119.065 76.794 118.941 76.624 118.737 76.352C117.603 74.856 115.552 72.0453 112.583 67.92V78.63C112.583 79.4687 112.696 79.9107 112.923 79.956C113.172 80.0013 113.614 80.024 114.249 80.024H114.385C114.657 80.024 114.793 80.1033 114.793 80.262C114.793 80.4433 114.543 80.534 114.045 80.534C113.954 80.534 113.58 80.5113 112.923 80.466C112.583 80.4433 112.277 80.432 112.005 80.432C111.778 80.432 111.551 80.4433 111.325 80.466C110.894 80.5113 110.429 80.534 109.931 80.534C109.568 80.534 109.387 80.4433 109.387 80.262C109.387 80.1033 109.602 80.024 110.033 80.024H110.339L110.781 79.99C111.325 79.9447 111.608 79.8427 111.631 79.684C111.653 79.5933 111.665 79.2647 111.665 78.698V69.348C111.665 67.648 111.563 66.628 111.359 66.288C111.087 65.8347 110.554 65.608 109.761 65.608C109.194 65.608 108.911 65.506 108.911 65.302C108.911 65.1433 109.058 65.064 109.353 65.064H109.489L111.359 65.098C111.449 65.098 111.597 65.098 111.801 65.098C112.027 65.0753 112.231 65.064 112.413 65.064H113.671L121.695 76.08V66.628C121.695 66.0613 121.672 65.7327 121.627 65.642C121.581 65.5513 121.4 65.506 121.083 65.506C120.788 65.506 120.55 65.5173 120.369 65.54H120.165C119.734 65.54 119.519 65.4493 119.519 65.268C119.519 65.1547 119.621 65.0867 119.825 65.064C120.051 65.0413 120.822 65.03 122.137 65.03C123.383 65.03 124.109 65.0413 124.313 65.064C124.517 65.0867 124.619 65.166 124.619 65.302ZM152.096 72.884C152.096 72.8613 152.073 73.1673 152.028 73.802C151.937 75.0713 151.892 76.3407 151.892 77.61C151.892 77.7687 151.914 78.0633 151.96 78.494C152.005 78.902 152.028 79.4007 152.028 79.99V80.296C152.028 80.5907 151.937 80.738 151.756 80.738C151.574 80.738 151.416 80.568 151.28 80.228C150.962 79.4347 150.645 78.9473 150.328 78.766C148.696 80.194 146.735 80.908 144.446 80.908C141.114 80.908 138.348 79.752 136.15 77.44C133.974 75.1053 132.886 72.17 132.886 68.634C132.886 65.0753 133.883 62.174 135.878 59.93C137.895 57.6633 140.49 56.53 143.664 56.53C144.82 56.53 145.738 56.632 146.418 56.836C147.12 57.0173 147.982 57.4027 149.002 57.992C149.5 58.2867 149.874 58.434 150.124 58.434C150.328 58.434 150.52 58.2527 150.702 57.89C150.996 57.2553 151.234 56.938 151.416 56.938C151.597 56.938 151.688 57.0287 151.688 57.21C151.688 57.3007 151.665 57.448 151.62 57.652C151.37 58.74 151.246 60.78 151.246 63.772C151.246 64.2027 151.212 64.452 151.144 64.52C151.076 64.588 150.985 64.622 150.872 64.622C150.645 64.622 150.498 64.4067 150.43 63.976C150.135 62.1627 149.716 60.814 149.172 59.93C148.061 58.1167 146.316 57.21 143.936 57.21C142.1 57.21 140.649 57.822 139.584 59.046C137.657 61.2447 136.694 64.4633 136.694 68.702C136.694 72.4873 137.487 75.4227 139.074 77.508C140.456 79.3213 142.292 80.228 144.582 80.228C145.76 80.228 146.837 79.9333 147.812 79.344C148.786 78.7547 149.534 77.95 150.056 76.93C150.6 75.8873 151.019 74.6407 151.314 73.19C151.427 72.646 151.574 72.374 151.756 72.374C151.982 72.374 152.096 72.544 152.096 72.884ZM169.549 80.33C169.549 80.466 169.322 80.534 168.869 80.534H168.631L166.523 80.466H165.571C165.185 80.466 164.653 80.4773 163.973 80.5L162.953 80.534L162.341 80.568H162.171C161.763 80.568 161.559 80.4773 161.559 80.296C161.559 80.1147 161.967 80.0127 162.783 79.99C163.757 79.9673 164.245 79.854 164.245 79.65C164.245 79.6047 164.177 79.3893 164.041 79.004C163.995 78.8227 163.735 78.0633 163.259 76.726L162.851 75.57H157.989C157.059 77.9047 156.595 79.2533 156.595 79.616C156.595 79.82 156.731 79.9333 157.003 79.956L157.445 79.99H157.955L158.261 80.024C158.533 80.024 158.669 80.1033 158.669 80.262C158.669 80.4433 158.431 80.534 157.955 80.534C157.887 80.534 157.479 80.5227 156.731 80.5C156.005 80.4547 155.359 80.432 154.793 80.432H154.487L154.181 80.466L153.807 80.5H153.739C153.376 80.5 153.195 80.432 153.195 80.296C153.195 80.1373 153.342 80.0467 153.637 80.024C154.045 80.0013 154.317 79.9787 154.453 79.956C154.838 79.888 155.087 79.786 155.201 79.65C155.337 79.582 155.892 78.29 156.867 75.774C157.252 74.754 157.626 73.802 157.989 72.918C158.125 72.6007 158.215 72.3627 158.261 72.204C158.306 72.0453 158.397 71.8073 158.533 71.49C158.918 70.5607 159.462 69.1553 160.165 67.274L160.675 65.846L160.913 65.234C161.049 64.894 161.185 64.724 161.321 64.724C161.389 64.724 161.536 65.0413 161.763 65.676C162.443 67.3307 164.199 71.7053 167.033 78.8C167.305 79.5027 167.565 79.8767 167.815 79.922C167.883 79.9447 168.245 79.9787 168.903 80.024C169.333 80.0467 169.549 80.1487 169.549 80.33ZM162.647 74.958L160.437 69.144C159.893 70.504 159.145 72.442 158.193 74.958H162.647ZM180.105 76.148C180.105 77.4173 179.561 78.5053 178.473 79.412C177.385 80.3187 176.07 80.772 174.529 80.772C173.373 80.772 172.183 80.4093 170.959 79.684C170.823 79.6387 170.732 79.616 170.687 79.616C170.551 79.616 170.472 79.7293 170.449 79.956C170.426 80.1827 170.392 80.3753 170.347 80.534C170.302 80.7153 170.188 80.806 170.007 80.806C169.78 80.806 169.667 80.6927 169.667 80.466C169.667 80.4207 169.701 80.0807 169.769 79.446C169.837 78.8113 169.871 78.2673 169.871 77.814C169.871 77.61 169.86 77.3267 169.837 76.964C169.814 76.5787 169.803 76.284 169.803 76.08C169.803 75.6493 169.916 75.434 170.143 75.434C170.37 75.434 170.54 75.7853 170.653 76.488C171.084 78.9813 172.421 80.228 174.665 80.228C176.569 80.228 177.521 79.276 177.521 77.372C177.521 76.5333 177.294 75.8533 176.841 75.332C176.388 74.8107 175.504 74.2213 174.189 73.564C172.466 72.7027 171.367 72.0227 170.891 71.524C170.279 70.8667 169.973 70.0507 169.973 69.076C169.973 67.8293 170.426 66.8093 171.333 66.016C172.24 65.2 173.384 64.792 174.767 64.792C175.628 64.792 176.546 65.0527 177.521 65.574C177.634 65.642 177.725 65.676 177.793 65.676C177.952 65.676 178.054 65.5173 178.099 65.2C178.144 64.86 178.28 64.69 178.507 64.69C178.734 64.69 178.847 64.8033 178.847 65.03C178.847 65.0753 178.836 65.166 178.813 65.302C178.768 65.6647 178.745 66.1293 178.745 66.696C178.745 67.036 178.779 67.648 178.847 68.532C178.87 68.6227 178.881 68.7247 178.881 68.838C178.881 69.11 178.79 69.246 178.609 69.246C178.405 69.246 178.258 69.042 178.167 68.634C177.963 67.6367 177.544 66.8433 176.909 66.254C176.297 65.642 175.572 65.336 174.733 65.336C173.101 65.336 172.285 66.2087 172.285 67.954C172.285 68.7247 172.5 69.3593 172.931 69.858C173.158 70.13 173.407 70.3453 173.679 70.504C173.951 70.6627 174.744 71.0593 176.059 71.694C177.532 72.4193 178.575 73.122 179.187 73.802C179.799 74.4593 180.105 75.2413 180.105 76.148ZM196.775 80.33C196.775 80.466 196.549 80.534 196.095 80.534H195.857L193.749 80.466H192.797C192.412 80.466 191.879 80.4773 191.199 80.5L190.179 80.534L189.567 80.568H189.397C188.989 80.568 188.785 80.4773 188.785 80.296C188.785 80.1147 189.193 80.0127 190.009 79.99C190.984 79.9673 191.471 79.854 191.471 79.65C191.471 79.6047 191.403 79.3893 191.267 79.004C191.222 78.8227 190.961 78.0633 190.485 76.726L190.077 75.57H185.215C184.286 77.9047 183.821 79.2533 183.821 79.616C183.821 79.82 183.957 79.9333 184.229 79.956L184.671 79.99H185.181L185.487 80.024C185.759 80.024 185.895 80.1033 185.895 80.262C185.895 80.4433 185.657 80.534 185.181 80.534C185.113 80.534 184.705 80.5227 183.957 80.5C183.232 80.4547 182.586 80.432 182.019 80.432H181.713L181.407 80.466L181.033 80.5H180.965C180.603 80.5 180.421 80.432 180.421 80.296C180.421 80.1373 180.569 80.0467 180.863 80.024C181.271 80.0013 181.543 79.9787 181.679 79.956C182.065 79.888 182.314 79.786 182.427 79.65C182.563 79.582 183.119 78.29 184.093 75.774C184.479 74.754 184.853 73.802 185.215 72.918C185.351 72.6007 185.442 72.3627 185.487 72.204C185.533 72.0453 185.623 71.8073 185.759 71.49C186.145 70.5607 186.689 69.1553 187.391 67.274L187.901 65.846L188.139 65.234C188.275 64.894 188.411 64.724 188.547 64.724C188.615 64.724 188.763 65.0413 188.989 65.676C189.669 67.3307 191.426 71.7053 194.259 78.8C194.531 79.5027 194.792 79.8767 195.041 79.922C195.109 79.9447 195.472 79.9787 196.129 80.024C196.56 80.0467 196.775 80.1487 196.775 80.33ZM189.873 74.958L187.663 69.144C187.119 70.504 186.371 72.442 185.419 74.958H189.873ZM207.331 76.148C207.331 77.4173 206.787 78.5053 205.699 79.412C204.611 80.3187 203.297 80.772 201.755 80.772C200.599 80.772 199.409 80.4093 198.185 79.684C198.049 79.6387 197.959 79.616 197.913 79.616C197.777 79.616 197.698 79.7293 197.675 79.956C197.653 80.1827 197.619 80.3753 197.573 80.534C197.528 80.7153 197.415 80.806 197.233 80.806C197.007 80.806 196.893 80.6927 196.893 80.466C196.893 80.4207 196.927 80.0807 196.995 79.446C197.063 78.8113 197.097 78.2673 197.097 77.814C197.097 77.61 197.086 77.3267 197.063 76.964C197.041 76.5787 197.029 76.284 197.029 76.08C197.029 75.6493 197.143 75.434 197.369 75.434C197.596 75.434 197.766 75.7853 197.879 76.488C198.31 78.9813 199.647 80.228 201.891 80.228C203.795 80.228 204.747 79.276 204.747 77.372C204.747 76.5333 204.521 75.8533 204.067 75.332C203.614 74.8107 202.73 74.2213 201.415 73.564C199.693 72.7027 198.593 72.0227 198.117 71.524C197.505 70.8667 197.199 70.0507 197.199 69.076C197.199 67.8293 197.653 66.8093 198.559 66.016C199.466 65.2 200.611 64.792 201.993 64.792C202.855 64.792 203.773 65.0527 204.747 65.574C204.861 65.642 204.951 65.676 205.019 65.676C205.178 65.676 205.28 65.5173 205.325 65.2C205.371 64.86 205.507 64.69 205.733 64.69C205.96 64.69 206.073 64.8033 206.073 65.03C206.073 65.0753 206.062 65.166 206.039 65.302C205.994 65.6647 205.971 66.1293 205.971 66.696C205.971 67.036 206.005 67.648 206.073 68.532C206.096 68.6227 206.107 68.7247 206.107 68.838C206.107 69.11 206.017 69.246 205.835 69.246C205.631 69.246 205.484 69.042 205.393 68.634C205.189 67.6367 204.77 66.8433 204.135 66.254C203.523 65.642 202.798 65.336 201.959 65.336C200.327 65.336 199.511 66.2087 199.511 67.954C199.511 68.7247 199.727 69.3593 200.157 69.858C200.384 70.13 200.633 70.3453 200.905 70.504C201.177 70.6627 201.971 71.0593 203.285 71.694C204.759 72.4193 205.801 73.122 206.413 73.802C207.025 74.4593 207.331 75.2413 207.331 76.148Z" fill="#CACAEA"/>
</svg>
