<svg width="361" height="59" viewBox="0 0 361 59" fill="none" xmlns="http://www.w3.org/2000/svg">
<rect y="28.7843" width="30.8236" height="1" fill="#851425"/>
<path d="M37.1216 34.9443C35.3723 34.9443 34.0336 34.4376 33.1056 33.4243C32.1776 32.411 31.7136 30.9976 31.7136 29.1843C31.7136 28.0003 31.9269 26.9763 32.3536 26.1123C32.7803 25.2483 33.3989 24.587 34.2096 24.1283C35.0309 23.659 36.0229 23.4243 37.1856 23.4243C37.8789 23.4243 38.4869 23.5203 39.0096 23.7123C39.5429 23.8936 39.9909 24.1123 40.3536 24.3683C40.3643 24.3683 40.3856 24.379 40.4176 24.4003C40.4496 24.4216 40.4763 24.4323 40.4976 24.4323C40.5936 24.4323 40.6416 24.3576 40.6416 24.2083V23.5043H41.3136V26.6563H40.7536C40.6576 25.8563 40.3109 25.2483 39.7136 24.8323C39.1269 24.4056 38.4176 24.1923 37.5856 24.1923C36.3376 24.1923 35.3669 24.6403 34.6736 25.5363C33.9909 26.4323 33.6496 27.6483 33.6496 29.1843C33.6496 30.7523 33.9643 31.979 34.5936 32.8643C35.2229 33.7496 36.1563 34.1923 37.3936 34.1923C38.1403 34.1923 38.8283 34.0216 39.4576 33.6803C40.0976 33.3283 40.5509 32.779 40.8176 32.0323H41.5376C41.3456 32.9176 40.8549 33.627 40.0656 34.1603C39.2763 34.683 38.2949 34.9443 37.1216 34.9443ZM46.6987 34.9443C45.3441 34.9443 44.2987 34.6083 43.5627 33.9363C42.8267 33.2536 42.4587 32.283 42.4587 31.0243C42.4587 29.7656 42.8267 28.8003 43.5627 28.1283C44.2987 27.4456 45.3441 27.1043 46.6987 27.1043C48.0427 27.1043 49.0827 27.4456 49.8187 28.1283C50.5547 28.8003 50.9227 29.7656 50.9227 31.0243C50.9227 32.283 50.5547 33.2536 49.8187 33.9363C49.0827 34.6083 48.0427 34.9443 46.6987 34.9443ZM46.6987 34.2403C47.4347 34.2403 48.0161 33.963 48.4427 33.4083C48.8694 32.8536 49.0827 32.059 49.0827 31.0243C49.0827 30.0003 48.8694 29.211 48.4427 28.6563C48.0161 28.1016 47.4347 27.8243 46.6987 27.8243C45.9521 27.8243 45.3654 28.1016 44.9387 28.6563C44.5121 29.211 44.2987 30.0003 44.2987 31.0243C44.2987 32.059 44.5121 32.8536 44.9387 33.4083C45.3654 33.963 45.9521 34.2403 46.6987 34.2403ZM51.8188 34.3043H52.1548C52.4215 34.3043 52.6295 34.2616 52.7788 34.1763C52.9388 34.091 53.0188 33.9576 53.0188 33.7763V24.8003C53.0188 24.5443 52.8908 24.4163 52.6348 24.4163C52.5495 24.4163 52.4055 24.4536 52.2028 24.5283L52.0748 24.1123L54.4108 23.3123H54.8588V33.7603C54.8588 33.9416 54.9335 34.0803 55.0828 34.1763C55.2428 34.2616 55.4508 34.3043 55.7068 34.3043H56.0108V34.7843H51.8188V34.3043ZM61.1518 34.9443C59.7972 34.9443 58.7518 34.6083 58.0158 33.9363C57.2798 33.2536 56.9118 32.283 56.9118 31.0243C56.9118 29.7656 57.2798 28.8003 58.0158 28.1283C58.7518 27.4456 59.7972 27.1043 61.1518 27.1043C62.4958 27.1043 63.5358 27.4456 64.2718 28.1283C65.0078 28.8003 65.3758 29.7656 65.3758 31.0243C65.3758 32.283 65.0078 33.2536 64.2718 33.9363C63.5358 34.6083 62.4958 34.9443 61.1518 34.9443ZM61.1518 34.2403C61.8878 34.2403 62.4692 33.963 62.8958 33.4083C63.3225 32.8536 63.5358 32.059 63.5358 31.0243C63.5358 30.0003 63.3225 29.211 62.8958 28.6563C62.4692 28.1016 61.8878 27.8243 61.1518 27.8243C60.4052 27.8243 59.8185 28.1016 59.3918 28.6563C58.9652 29.211 58.7518 30.0003 58.7518 31.0243C58.7518 32.059 58.9652 32.8536 59.3918 33.4083C59.8185 33.963 60.4052 34.2403 61.1518 34.2403ZM71.472 27.1043C71.8133 27.1043 72.1013 27.1683 72.336 27.2963C72.5813 27.4136 72.704 27.6056 72.704 27.8723C72.704 28.1176 72.64 28.3043 72.512 28.4323C72.3946 28.5496 72.2293 28.6083 72.016 28.6083C71.888 28.6083 71.7866 28.587 71.712 28.5443C71.6373 28.5016 71.5573 28.4376 71.472 28.3523C71.3973 28.267 71.3226 28.203 71.248 28.1603C71.1733 28.1176 71.0773 28.0963 70.96 28.0963C70.704 28.0963 70.448 28.203 70.192 28.4163C69.9466 28.619 69.7386 28.9123 69.568 29.2963C69.3973 29.6803 69.3013 30.123 69.28 30.6243V33.7603C69.28 33.9416 69.3546 34.0803 69.504 34.1763C69.664 34.2616 69.8773 34.3043 70.144 34.3043H70.448V34.7843H66.24V34.3043H66.592C66.848 34.3043 67.0506 34.2616 67.2 34.1763C67.36 34.091 67.44 33.9576 67.44 33.7763V28.6723C67.44 28.4163 67.3173 28.2883 67.072 28.2883C66.976 28.2883 66.8266 28.3256 66.624 28.4003L66.512 27.9843L68.896 27.1843H69.28V28.7843C69.44 28.2723 69.728 27.867 70.144 27.5683C70.56 27.259 71.0026 27.1043 71.472 27.1043ZM74.503 30.7043C74.4923 30.779 74.487 30.891 74.487 31.0403C74.487 32.011 74.7163 32.795 75.175 33.3923C75.6336 33.9896 76.2416 34.2883 76.999 34.2883C77.703 34.2883 78.279 34.1123 78.727 33.7603C79.175 33.3976 79.4683 32.843 79.607 32.0963H80.135C80.0496 32.939 79.719 33.627 79.143 34.1603C78.567 34.683 77.767 34.9443 76.743 34.9443C75.431 34.9443 74.4123 34.6083 73.687 33.9363C72.9723 33.2536 72.615 32.283 72.615 31.0243C72.615 29.8083 72.9723 28.8536 73.687 28.1603C74.4016 27.4563 75.3883 27.1043 76.647 27.1043C77.8096 27.1043 78.6896 27.403 79.287 28.0003C79.8843 28.587 80.183 29.355 80.183 30.3043V30.7043H74.503ZM76.711 27.7923C76.135 27.7923 75.6656 27.995 75.303 28.4003C74.9403 28.795 74.7003 29.3283 74.583 30.0003H78.567C78.5563 29.4456 78.4016 28.939 78.103 28.4803C77.815 28.0216 77.351 27.7923 76.711 27.7923ZM84.8995 34.9443C83.6835 34.9443 82.8035 34.6083 82.2595 33.9363L82.0995 34.8963H81.6355V32.4803H82.0835C82.2008 33.0136 82.4621 33.4403 82.8675 33.7603C83.2835 34.0803 83.7848 34.2403 84.3715 34.2403C84.9581 34.2403 85.4115 34.139 85.7315 33.9363C86.0621 33.723 86.2275 33.419 86.2275 33.0243C86.2275 32.7256 86.0835 32.491 85.7955 32.3203C85.5075 32.139 85.0648 31.947 84.4675 31.7443C83.8808 31.5416 83.4061 31.3496 83.0435 31.1683C82.6808 30.9763 82.3661 30.715 82.0995 30.3843C81.8328 30.043 81.6995 29.611 81.6995 29.0883C81.6995 28.4483 81.9448 27.9576 82.4355 27.6163C82.9368 27.275 83.6568 27.1043 84.5955 27.1043C85.0968 27.1043 85.5875 27.1843 86.0675 27.3443C86.5475 27.4936 86.9155 27.723 87.1715 28.0323L87.3315 27.1043H87.7955V29.4563H87.3475C87.2301 28.9763 86.9741 28.587 86.5795 28.2883C86.1955 27.979 85.7155 27.8243 85.1395 27.8243C84.6488 27.8243 84.2541 27.9203 83.9555 28.1123C83.6568 28.2936 83.5075 28.5496 83.5075 28.8803C83.5075 29.1256 83.5875 29.3336 83.7475 29.5043C83.9075 29.6643 84.1101 29.7976 84.3555 29.9043C84.6008 30.011 84.9421 30.139 85.3795 30.2883C85.9555 30.4803 86.4195 30.6616 86.7715 30.8323C87.1341 31.003 87.4381 31.2483 87.6835 31.5683C87.9395 31.8776 88.0675 32.283 88.0675 32.7843C88.0675 33.5203 87.7688 34.0643 87.1715 34.4163C86.5848 34.7683 85.8275 34.9443 84.8995 34.9443Z" fill="#851425"/>
<rect x="88.8236" y="28.7843" width="30.8236" height="1" fill="#851425"/>
<g filter="url(#filter0_d_275_845)">
<rect x="119.647" y="29.2843" width="40" height="40" transform="rotate(-45 119.647 29.2843)" fill="#851425"/>
<rect x="120.354" y="29.2843" width="39" height="39" transform="rotate(-45 120.354 29.2843)" stroke="#F5E9DB"/>
</g>
<g filter="url(#filter1_d_275_845)">
<rect x="152.216" y="29.2843" width="40" height="40" transform="rotate(-45 152.216 29.2843)" fill="white"/>
<rect x="152.923" y="29.2843" width="39" height="39" transform="rotate(-45 152.923 29.2843)" stroke="#F5E9DB"/>
</g>
<g filter="url(#filter2_d_275_845)">
<rect x="184.784" y="29.2843" width="40" height="40" transform="rotate(-45 184.784 29.2843)" fill="#2A6BC0"/>
<rect x="185.491" y="29.2843" width="39" height="39" transform="rotate(-45 185.491 29.2843)" stroke="#F5E9DB"/>
</g>
<rect x="241.353" y="28.7843" width="16.3236" height="1" fill="#213B97"/>
<path d="M266.48 31.9683C266.619 32.4696 266.752 32.875 266.88 33.1843C267.008 33.483 267.184 33.739 267.408 33.9523C267.632 34.1656 267.926 34.2776 268.288 34.2883V34.7843H266.8C266.235 34.7843 265.803 34.651 265.504 34.3843C265.206 34.1176 264.971 33.707 264.8 33.1523C264.704 32.8003 264.63 32.5016 264.576 32.2563C264.459 31.7123 264.342 31.2803 264.224 30.9603C264.107 30.6296 263.926 30.363 263.68 30.1603H261.472V33.7123C261.472 34.0963 261.776 34.2883 262.384 34.2883H262.864V34.7843H258.16V34.2883H258.624C258.934 34.2883 259.163 34.2456 259.312 34.1603C259.472 34.0643 259.552 33.915 259.552 33.7123V24.6723C259.552 24.2776 259.243 24.0803 258.624 24.0803H258.16V23.5843H263.808C265.078 23.5843 265.99 23.867 266.544 24.4323C267.099 24.9976 267.376 25.8083 267.376 26.8643C267.376 27.6963 267.211 28.379 266.88 28.9123C266.55 29.435 266.011 29.7976 265.264 30.0003C265.606 30.1816 265.851 30.427 266 30.7363C266.16 31.035 266.32 31.4456 266.48 31.9683ZM261.472 29.4243H263.392C264.118 29.4243 264.646 29.211 264.976 28.7843C265.318 28.347 265.488 27.707 265.488 26.8643C265.488 26.0216 265.318 25.387 264.976 24.9603C264.646 24.5336 264.118 24.3203 263.392 24.3203H261.472V29.4243ZM271.114 30.7043C271.103 30.779 271.098 30.891 271.098 31.0403C271.098 32.011 271.327 32.795 271.786 33.3923C272.244 33.9896 272.852 34.2883 273.61 34.2883C274.314 34.2883 274.89 34.1123 275.338 33.7603C275.786 33.3976 276.079 32.843 276.218 32.0963H276.746C276.66 32.939 276.33 33.627 275.754 34.1603C275.178 34.683 274.378 34.9443 273.354 34.9443C272.042 34.9443 271.023 34.6083 270.298 33.9363C269.583 33.2536 269.226 32.283 269.226 31.0243C269.226 29.8083 269.583 28.8536 270.298 28.1603C271.012 27.4563 271.999 27.1043 273.258 27.1043C274.42 27.1043 275.3 27.403 275.898 28.0003C276.495 28.587 276.794 29.355 276.794 30.3043V30.7043H271.114ZM273.322 27.7923C272.746 27.7923 272.276 27.995 271.914 28.4003C271.551 28.795 271.311 29.3283 271.194 30.0003H275.178C275.167 29.4456 275.012 28.939 274.714 28.4803C274.426 28.0216 273.962 27.7923 273.322 27.7923ZM281.51 34.9443C280.294 34.9443 279.414 34.6083 278.87 33.9363L278.71 34.8963H278.246V32.4803H278.694C278.811 33.0136 279.073 33.4403 279.478 33.7603C279.894 34.0803 280.395 34.2403 280.982 34.2403C281.569 34.2403 282.022 34.139 282.342 33.9363C282.673 33.723 282.838 33.419 282.838 33.0243C282.838 32.7256 282.694 32.491 282.406 32.3203C282.118 32.139 281.675 31.947 281.078 31.7443C280.491 31.5416 280.017 31.3496 279.654 31.1683C279.291 30.9763 278.977 30.715 278.71 30.3843C278.443 30.043 278.31 29.611 278.31 29.0883C278.31 28.4483 278.555 27.9576 279.046 27.6163C279.547 27.275 280.267 27.1043 281.206 27.1043C281.707 27.1043 282.198 27.1843 282.678 27.3443C283.158 27.4936 283.526 27.723 283.782 28.0323L283.942 27.1043H284.406V29.4563H283.958C283.841 28.9763 283.585 28.587 283.19 28.2883C282.806 27.979 282.326 27.8243 281.75 27.8243C281.259 27.8243 280.865 27.9203 280.566 28.1123C280.267 28.2936 280.118 28.5496 280.118 28.8803C280.118 29.1256 280.198 29.3336 280.358 29.5043C280.518 29.6643 280.721 29.7976 280.966 29.9043C281.211 30.011 281.553 30.139 281.99 30.2883C282.566 30.4803 283.03 30.6616 283.382 30.8323C283.745 31.003 284.049 31.2483 284.294 31.5683C284.55 31.8776 284.678 32.283 284.678 32.7843C284.678 33.5203 284.379 34.0643 283.782 34.4163C283.195 34.7683 282.438 34.9443 281.51 34.9443ZM287.817 30.7043C287.806 30.779 287.801 30.891 287.801 31.0403C287.801 32.011 288.03 32.795 288.489 33.3923C288.947 33.9896 289.555 34.2883 290.313 34.2883C291.017 34.2883 291.593 34.1123 292.041 33.7603C292.489 33.3976 292.782 32.843 292.921 32.0963H293.449C293.363 32.939 293.033 33.627 292.457 34.1603C291.881 34.683 291.081 34.9443 290.057 34.9443C288.745 34.9443 287.726 34.6083 287.001 33.9363C286.286 33.2536 285.929 32.283 285.929 31.0243C285.929 29.8083 286.286 28.8536 287.001 28.1603C287.715 27.4563 288.702 27.1043 289.961 27.1043C291.123 27.1043 292.003 27.403 292.601 28.0003C293.198 28.587 293.497 29.355 293.497 30.3043V30.7043H287.817ZM290.025 27.7923C289.449 27.7923 288.979 27.995 288.617 28.4003C288.254 28.795 288.014 29.3283 287.897 30.0003H291.881C291.87 29.4456 291.715 28.939 291.417 28.4803C291.129 28.0216 290.665 27.7923 290.025 27.7923ZM299.661 27.1043C300.002 27.1043 300.29 27.1683 300.525 27.2963C300.77 27.4136 300.893 27.6056 300.893 27.8723C300.893 28.1176 300.829 28.3043 300.701 28.4323C300.583 28.5496 300.418 28.6083 300.205 28.6083C300.077 28.6083 299.975 28.587 299.901 28.5443C299.826 28.5016 299.746 28.4376 299.661 28.3523C299.586 28.267 299.511 28.203 299.437 28.1603C299.362 28.1176 299.266 28.0963 299.149 28.0963C298.893 28.0963 298.637 28.203 298.381 28.4163C298.135 28.619 297.927 28.9123 297.757 29.2963C297.586 29.6803 297.49 30.123 297.469 30.6243V33.7603C297.469 33.9416 297.543 34.0803 297.693 34.1763C297.853 34.2616 298.066 34.3043 298.333 34.3043H298.637V34.7843H294.429V34.3043H294.781C295.037 34.3043 295.239 34.2616 295.389 34.1763C295.549 34.091 295.629 33.9576 295.629 33.7763V28.6723C295.629 28.4163 295.506 28.2883 295.261 28.2883C295.165 28.2883 295.015 28.3256 294.813 28.4003L294.701 27.9843L297.085 27.1843H297.469V28.7843C297.629 28.2723 297.917 27.867 298.333 27.5683C298.749 27.259 299.191 27.1043 299.661 27.1043ZM302.372 28.4643C302.266 28.1763 302.148 27.9843 302.02 27.8883C301.892 27.7923 301.716 27.7443 301.492 27.7443H301.22V27.2643H304.948V27.7443H304.66C304.255 27.7443 304.052 27.8616 304.052 28.0963C304.052 28.171 304.063 28.2296 304.084 28.2723L305.876 33.2483L307.652 28.3363C307.674 28.283 307.684 28.219 307.684 28.1443C307.684 28.0056 307.62 27.9043 307.492 27.8403C307.364 27.7763 307.215 27.7443 307.044 27.7443H306.772V27.2643H309.892V27.7443H309.668C309.466 27.7443 309.274 27.7816 309.092 27.8563C308.922 27.931 308.804 28.0536 308.74 28.2243L306.276 34.7843H304.788L302.372 28.4643ZM312.057 34.9443C311.396 34.9443 310.868 34.795 310.473 34.4963C310.079 34.187 309.881 33.771 309.881 33.2483C309.881 32.4483 310.292 31.803 311.113 31.3123C311.935 30.811 313.199 30.443 314.905 30.2083V29.4403C314.905 28.907 314.74 28.507 314.409 28.2403C314.089 27.9736 313.657 27.8403 313.113 27.8403C312.719 27.8403 312.356 27.9203 312.025 28.0803C311.705 28.2296 311.545 28.3896 311.545 28.5603C311.545 28.635 311.556 28.7256 311.577 28.8323C311.599 28.9283 311.609 29.003 311.609 29.0563C311.609 29.2163 311.551 29.3603 311.433 29.4883C311.327 29.6163 311.156 29.6803 310.921 29.6803C310.719 29.6803 310.543 29.6056 310.393 29.4563C310.255 29.307 310.185 29.099 310.185 28.8323C310.185 28.2776 310.5 27.851 311.129 27.5523C311.759 27.2536 312.548 27.1043 313.497 27.1043C314.553 27.1043 315.359 27.3336 315.913 27.7923C316.479 28.2403 316.761 28.859 316.761 29.6483V33.7603C316.761 34.1016 316.889 34.2723 317.145 34.2723C317.305 34.2723 317.503 34.2296 317.737 34.1443V34.4803C317.545 34.6296 317.311 34.7416 317.033 34.8163C316.756 34.9016 316.468 34.9443 316.169 34.9443C315.839 34.9443 315.551 34.8856 315.305 34.7683C315.06 34.6403 314.937 34.427 314.937 34.1283V33.7443C314.532 34.1923 314.073 34.507 313.561 34.6883C313.049 34.859 312.548 34.9443 312.057 34.9443ZM312.953 34.2083C313.305 34.2083 313.673 34.091 314.057 33.8563C314.441 33.6216 314.724 33.3496 314.905 33.0403V30.7843C313.849 31.019 313.049 31.3443 312.505 31.7603C311.972 32.1763 311.705 32.6243 311.705 33.1043C311.705 33.4563 311.817 33.7283 312.041 33.9203C312.265 34.1123 312.569 34.2083 312.953 34.2083ZM321.855 34.9443C320.777 34.9443 319.935 34.619 319.327 33.9683C318.719 33.3176 318.415 32.283 318.415 30.8643C318.415 30.0536 318.564 29.3656 318.863 28.8003C319.161 28.235 319.567 27.8136 320.079 27.5363C320.591 27.2483 321.177 27.1043 321.839 27.1043C322.991 27.1043 323.844 27.4563 324.399 28.1603V24.8003C324.399 24.5443 324.276 24.4163 324.031 24.4163C323.935 24.4163 323.785 24.4536 323.583 24.5283L323.471 24.1123L325.791 23.3123H326.239V33.5843C326.239 33.787 326.292 33.9363 326.399 34.0323C326.516 34.1176 326.692 34.1603 326.927 34.1603H327.311V34.6083L324.735 34.8643L324.655 33.6163C324.367 34.075 323.993 34.411 323.535 34.6243C323.076 34.8376 322.516 34.9443 321.855 34.9443ZM322.383 34.2403C323.012 34.2403 323.508 34.027 323.871 33.6003C324.233 33.1736 324.415 32.667 324.415 32.0803V29.6963C324.415 29.3336 324.319 29.0136 324.127 28.7363C323.935 28.4483 323.689 28.2243 323.391 28.0643C323.092 27.9043 322.788 27.8243 322.479 27.8243C320.985 27.8243 320.239 28.8536 320.239 30.9123C320.239 33.131 320.953 34.2403 322.383 34.2403ZM332.278 34.9443C330.923 34.9443 329.878 34.6083 329.142 33.9363C328.406 33.2536 328.038 32.283 328.038 31.0243C328.038 29.7656 328.406 28.8003 329.142 28.1283C329.878 27.4456 330.923 27.1043 332.278 27.1043C333.622 27.1043 334.662 27.4456 335.398 28.1283C336.134 28.8003 336.502 29.7656 336.502 31.0243C336.502 32.283 336.134 33.2536 335.398 33.9363C334.662 34.6083 333.622 34.9443 332.278 34.9443ZM332.278 34.2403C333.014 34.2403 333.595 33.963 334.022 33.4083C334.449 32.8536 334.662 32.059 334.662 31.0243C334.662 30.0003 334.449 29.211 334.022 28.6563C333.595 28.1016 333.014 27.8243 332.278 27.8243C331.531 27.8243 330.945 28.1016 330.518 28.6563C330.091 29.211 329.878 30.0003 329.878 31.0243C329.878 32.059 330.091 32.8536 330.518 33.4083C330.945 33.963 331.531 34.2403 332.278 34.2403ZM340.838 34.9443C339.622 34.9443 338.742 34.6083 338.198 33.9363L338.038 34.8963H337.574V32.4803H338.022C338.14 33.0136 338.401 33.4403 338.806 33.7603C339.222 34.0803 339.724 34.2403 340.31 34.2403C340.897 34.2403 341.35 34.139 341.67 33.9363C342.001 33.723 342.166 33.419 342.166 33.0243C342.166 32.7256 342.022 32.491 341.734 32.3203C341.446 32.139 341.004 31.947 340.406 31.7443C339.82 31.5416 339.345 31.3496 338.982 31.1683C338.62 30.9763 338.305 30.715 338.038 30.3843C337.772 30.043 337.638 29.611 337.638 29.0883C337.638 28.4483 337.884 27.9576 338.374 27.6163C338.876 27.275 339.596 27.1043 340.534 27.1043C341.036 27.1043 341.526 27.1843 342.006 27.3443C342.486 27.4936 342.854 27.723 343.11 28.0323L343.27 27.1043H343.734V29.4563H343.286C343.169 28.9763 342.913 28.587 342.518 28.2883C342.134 27.979 341.654 27.8243 341.078 27.8243C340.588 27.8243 340.193 27.9203 339.894 28.1123C339.596 28.2936 339.446 28.5496 339.446 28.8803C339.446 29.1256 339.526 29.3336 339.686 29.5043C339.846 29.6643 340.049 29.7976 340.294 29.9043C340.54 30.011 340.881 30.139 341.318 30.2883C341.894 30.4803 342.358 30.6616 342.71 30.8323C343.073 31.003 343.377 31.2483 343.622 31.5683C343.878 31.8776 344.006 32.283 344.006 32.7843C344.006 33.5203 343.708 34.0643 343.11 34.4163C342.524 34.7683 341.766 34.9443 340.838 34.9443Z" fill="#213B97"/>
<rect x="344.676" y="28.7843" width="16.3236" height="1" fill="#213B97"/>
<defs>
<filter id="filter0_d_275_845" x="118.647" y="0" width="58.5685" height="58.5686" filterUnits="userSpaceOnUse" color-interpolation-filters="sRGB">
<feFlood flood-opacity="0" result="BackgroundImageFix"/>
<feColorMatrix in="SourceAlpha" type="matrix" values="0 0 0 0 0 0 0 0 0 0 0 0 0 0 0 0 0 0 127 0" result="hardAlpha"/>
<feMorphology radius="1" operator="dilate" in="SourceAlpha" result="effect1_dropShadow_275_845"/>
<feOffset/>
<feComposite in2="hardAlpha" operator="out"/>
<feColorMatrix type="matrix" values="0 0 0 0 0.522 0 0 0 0 0.078 0 0 0 0 0.143778 0 0 0 1 0"/>
<feBlend mode="normal" in2="BackgroundImageFix" result="effect1_dropShadow_275_845"/>
<feBlend mode="normal" in="SourceGraphic" in2="effect1_dropShadow_275_845" result="shape"/>
</filter>
<filter id="filter1_d_275_845" x="151.216" y="0" width="58.5685" height="58.5686" filterUnits="userSpaceOnUse" color-interpolation-filters="sRGB">
<feFlood flood-opacity="0" result="BackgroundImageFix"/>
<feColorMatrix in="SourceAlpha" type="matrix" values="0 0 0 0 0 0 0 0 0 0 0 0 0 0 0 0 0 0 127 0" result="hardAlpha"/>
<feMorphology radius="1" operator="dilate" in="SourceAlpha" result="effect1_dropShadow_275_845"/>
<feOffset/>
<feComposite in2="hardAlpha" operator="out"/>
<feColorMatrix type="matrix" values="0 0 0 0 1 0 0 0 0 1 0 0 0 0 1 0 0 0 1 0"/>
<feBlend mode="normal" in2="BackgroundImageFix" result="effect1_dropShadow_275_845"/>
<feBlend mode="normal" in="SourceGraphic" in2="effect1_dropShadow_275_845" result="shape"/>
</filter>
<filter id="filter2_d_275_845" x="183.784" y="0" width="58.5685" height="58.5686" filterUnits="userSpaceOnUse" color-interpolation-filters="sRGB">
<feFlood flood-opacity="0" result="BackgroundImageFix"/>
<feColorMatrix in="SourceAlpha" type="matrix" values="0 0 0 0 0 0 0 0 0 0 0 0 0 0 0 0 0 0 127 0" result="hardAlpha"/>
<feMorphology radius="1" operator="dilate" in="SourceAlpha" result="effect1_dropShadow_275_845"/>
<feOffset/>
<feComposite in2="hardAlpha" operator="out"/>
<feColorMatrix type="matrix" values="0 0 0 0 0.165941 0 0 0 0 0.420792 0 0 0 0 0.754059 0 0 0 1 0"/>
<feBlend mode="normal" in2="BackgroundImageFix" result="effect1_dropShadow_275_845"/>
<feBlend mode="normal" in="SourceGraphic" in2="effect1_dropShadow_275_845" result="shape"/>
</filter>
</defs>
</svg>
