<svg width="207" height="89" viewBox="0 0 207 89" fill="none" xmlns="http://www.w3.org/2000/svg">
<path d="M27.2861 20.236C27.2861 24.2253 25.8921 27.3307 23.1041 29.552C21.0641 31.184 18.3328 32 14.9101 32C14.8195 32 14.4115 31.9887 13.6861 31.966C12.9835 31.9433 11.9521 31.932 10.5921 31.932H8.89212L6.20612 31.966C6.04745 31.9887 5.87745 32 5.69612 32C5.26545 32 5.05012 31.8867 5.05012 31.66C5.05012 31.456 5.41278 31.354 6.13812 31.354C7.06745 31.354 7.64545 31.184 7.87212 30.844C7.96278 30.6853 8.00812 30.2547 8.00812 29.552V11.226C8.00812 10.1153 7.91745 9.46933 7.73612 9.288C7.57745 9.10666 6.99945 9.016 6.00212 9.016C5.48078 9.016 5.22012 8.89133 5.22012 8.642C5.22012 8.46067 5.41278 8.37 5.79812 8.37C5.77545 8.37 6.02478 8.38133 6.54612 8.404C7.06745 8.42667 7.57745 8.438 8.07612 8.438H11.7141C15.7941 8.438 18.6841 8.72133 20.3841 9.288C22.4468 9.968 24.1128 11.3167 25.3821 13.334C26.6515 15.3287 27.2861 17.6293 27.2861 20.236ZM23.4781 20.1C23.4781 16.3373 22.7415 13.5833 21.2681 11.838C19.7948 10.07 17.4941 9.186 14.3661 9.186C12.8475 9.186 11.9295 9.34467 11.6121 9.662C11.4761 9.82067 11.4081 10.3647 11.4081 11.294V29.382C11.4081 30.0167 11.4195 30.402 11.4421 30.538C11.4875 30.674 11.5895 30.7873 11.7481 30.878C12.2921 31.15 13.4368 31.286 15.1821 31.286C17.6301 31.286 19.6021 30.4247 21.0981 28.702C22.6848 26.8887 23.4781 24.0213 23.4781 20.1ZM44.62 31.83C44.62 31.966 44.3933 32.034 43.94 32.034H43.702L41.594 31.966H40.642C40.2567 31.966 39.724 31.9773 39.044 32L38.024 32.034L37.412 32.068H37.242C36.834 32.068 36.63 31.9773 36.63 31.796C36.63 31.6147 37.038 31.5127 37.854 31.49C38.8287 31.4673 39.316 31.354 39.316 31.15C39.316 31.1047 39.248 30.8893 39.112 30.504C39.0667 30.3227 38.806 29.5633 38.33 28.226L37.922 27.07H33.06C32.1307 29.4047 31.666 30.7533 31.666 31.116C31.666 31.32 31.802 31.4333 32.074 31.456L32.516 31.49H33.026L33.332 31.524C33.604 31.524 33.74 31.6033 33.74 31.762C33.74 31.9433 33.502 32.034 33.026 32.034C32.958 32.034 32.55 32.0227 31.802 32C31.0767 31.9547 30.4307 31.932 29.864 31.932H29.558L29.252 31.966L28.878 32H28.81C28.4473 32 28.266 31.932 28.266 31.796C28.266 31.6373 28.4133 31.5467 28.708 31.524C29.116 31.5013 29.388 31.4787 29.524 31.456C29.9093 31.388 30.1587 31.286 30.272 31.15C30.408 31.082 30.9633 29.79 31.938 27.274C32.3233 26.254 32.6973 25.302 33.06 24.418C33.196 24.1007 33.2867 23.8627 33.332 23.704C33.3773 23.5453 33.468 23.3073 33.604 22.99C33.9893 22.0607 34.5333 20.6553 35.236 18.774L35.746 17.346L35.984 16.734C36.12 16.394 36.256 16.224 36.392 16.224C36.46 16.224 36.6073 16.5413 36.834 17.176C37.514 18.8307 39.2707 23.2053 42.104 30.3C42.376 31.0027 42.6367 31.3767 42.886 31.422C42.954 31.4447 43.3167 31.4787 43.974 31.524C44.4047 31.5467 44.62 31.6487 44.62 31.83ZM37.718 26.458L35.508 20.644C34.964 22.004 34.216 23.942 33.264 26.458H37.718ZM59.2562 16.802C59.2562 16.9833 59.0069 17.074 58.5082 17.074C58.4402 17.074 58.2815 17.0627 58.0322 17.04H57.6582C57.4542 17.04 57.3295 17.0853 57.2842 17.176C57.2615 17.2667 57.2502 17.5727 57.2502 18.094V30.572C57.2502 31.388 57.2389 31.864 57.2162 32C57.1935 32.136 57.0915 32.204 56.9102 32.204C56.6609 32.204 55.8562 31.2633 54.4962 29.382C54.3375 29.1327 54.0882 28.7927 53.7482 28.362C53.7029 28.294 53.5782 28.124 53.3742 27.852C52.2409 26.356 50.1895 23.5453 47.2202 19.42V30.13C47.2202 30.9687 47.3335 31.4107 47.5602 31.456C47.8095 31.5013 48.2515 31.524 48.8862 31.524H49.0222C49.2942 31.524 49.4302 31.6033 49.4302 31.762C49.4302 31.9433 49.1809 32.034 48.6822 32.034C48.5915 32.034 48.2175 32.0113 47.5602 31.966C47.2202 31.9433 46.9142 31.932 46.6422 31.932C46.4155 31.932 46.1889 31.9433 45.9622 31.966C45.5315 32.0113 45.0669 32.034 44.5682 32.034C44.2055 32.034 44.0242 31.9433 44.0242 31.762C44.0242 31.6033 44.2395 31.524 44.6702 31.524H44.9762L45.4182 31.49C45.9622 31.4447 46.2455 31.3427 46.2682 31.184C46.2909 31.0933 46.3022 30.7647 46.3022 30.198V20.848C46.3022 19.148 46.2002 18.128 45.9962 17.788C45.7242 17.3347 45.1915 17.108 44.3982 17.108C43.8315 17.108 43.5482 17.006 43.5482 16.802C43.5482 16.6433 43.6955 16.564 43.9902 16.564H44.1262L45.9962 16.598C46.0869 16.598 46.2342 16.598 46.4382 16.598C46.6649 16.5753 46.8689 16.564 47.0502 16.564H48.3082L56.3322 27.58V18.128C56.3322 17.5613 56.3095 17.2327 56.2642 17.142C56.2189 17.0513 56.0375 17.006 55.7202 17.006C55.4255 17.006 55.1875 17.0173 55.0062 17.04H54.8022C54.3715 17.04 54.1562 16.9493 54.1562 16.768C54.1562 16.6547 54.2582 16.5867 54.4622 16.564C54.6889 16.5413 55.4595 16.53 56.7742 16.53C58.0209 16.53 58.7462 16.5413 58.9502 16.564C59.1542 16.5867 59.2562 16.666 59.2562 16.802ZM67.1309 31.796C67.1309 31.932 67.0289 32 66.8249 32H66.4849L65.7709 31.966H64.8869C64.7056 31.966 64.5129 31.9547 64.3089 31.932C64.1276 31.932 64.0029 31.932 63.9349 31.932C63.7083 31.932 63.2776 31.9433 62.6429 31.966C62.0309 31.9887 61.5663 32 61.2489 32H61.1129C60.7276 32 60.5349 31.932 60.5349 31.796C60.5349 31.6147 60.7843 31.5127 61.2829 31.49C61.9629 31.4447 62.3143 31.3653 62.3369 31.252C62.3823 31.1387 62.4049 30.6513 62.4049 29.79V18.842C62.4049 17.958 62.3823 17.448 62.3369 17.312C62.2916 17.1533 62.1216 17.0627 61.8269 17.04L61.1469 17.006H60.8069C60.6029 17.006 60.5009 16.9267 60.5009 16.768C60.5009 16.6093 60.6483 16.53 60.9429 16.53C60.9203 16.53 60.9883 16.53 61.1469 16.53C61.3056 16.5527 61.5549 16.564 61.8949 16.564H64.3429C64.4789 16.564 64.6829 16.5527 64.9549 16.53C65.2269 16.53 65.4763 16.53 65.7029 16.53H66.5529C66.9156 16.53 67.0969 16.6207 67.0969 16.802C67.0969 16.938 66.7116 17.0173 65.9409 17.04C65.6236 17.04 65.4309 17.0967 65.3629 17.21C65.2949 17.3007 65.2609 17.6067 65.2609 18.128V30.946C65.2609 31.1727 65.3403 31.32 65.4989 31.388C65.6803 31.456 66.0883 31.5127 66.7229 31.558C66.9949 31.5807 67.1309 31.66 67.1309 31.796ZM81.5889 28.328C81.5889 28.3507 81.5776 28.498 81.5549 28.77C81.5322 29.0193 81.5209 29.246 81.5209 29.45L81.4869 31.388C81.4869 31.6147 81.4982 31.864 81.5209 32.136L75.8769 32.034L69.4169 32.068C68.9409 32.068 68.7029 31.9887 68.7029 31.83C68.7029 31.6487 68.8389 31.558 69.1109 31.558C69.8362 31.558 70.2556 31.5127 70.3689 31.422C70.5049 31.3087 70.5729 30.9347 70.5729 30.3V18.604C70.5729 17.6747 70.4936 17.1873 70.3349 17.142C70.1762 17.074 69.7796 17.04 69.1449 17.04C68.8729 17.04 68.7369 16.9607 68.7369 16.802C68.7369 16.6207 68.8842 16.53 69.1789 16.53H69.9949C70.2216 16.53 70.4482 16.53 70.6749 16.53C70.9242 16.5527 71.0489 16.564 71.0489 16.564H71.8989C72.0122 16.564 72.5789 16.5527 73.5989 16.53C74.6416 16.53 75.8882 16.53 77.3389 16.53H79.3449C79.9342 16.53 80.4216 16.5073 80.8069 16.462V16.7L80.8409 17.21C80.8862 17.55 80.9769 18.57 81.1129 20.27C81.1356 20.3833 81.1469 20.5193 81.1469 20.678C81.1469 20.9727 81.0676 21.12 80.9089 21.12C80.7049 21.12 80.5576 20.8933 80.4669 20.44C80.1496 18.7173 79.5489 17.7087 78.6649 17.414C78.1662 17.2553 76.9876 17.176 75.1289 17.176H73.3949V23.534H74.2109C75.6616 23.534 76.5569 23.4207 76.8969 23.194C77.2369 22.9447 77.4636 22.2873 77.5769 21.222C77.6449 20.5873 77.7809 20.27 77.9849 20.27C78.2116 20.27 78.3249 20.4967 78.3249 20.95C78.3249 21.222 78.3022 21.6413 78.2569 22.208C78.2342 22.7747 78.2229 23.2053 78.2229 23.5C78.2229 24.9733 78.2569 25.982 78.3249 26.526C78.3476 26.7073 78.3589 26.8547 78.3589 26.968C78.3589 27.3307 78.2456 27.512 78.0189 27.512C77.8149 27.512 77.6789 27.2287 77.6109 26.662C77.4749 25.438 77.2482 24.7127 76.9309 24.486C76.6136 24.2367 75.7182 24.112 74.2449 24.112H73.3949V31.456C76.7269 31.4333 78.6876 31.3427 79.2769 31.184C80.1836 30.9347 80.7162 29.8467 80.8749 27.92C80.8976 27.58 81.0222 27.41 81.2489 27.41C81.4756 27.41 81.5889 27.716 81.5889 28.328ZM95.9026 28.94C95.9026 30.2093 95.88 31.2747 95.8346 32.136C95.6986 32.1587 95.5286 32.17 95.3246 32.17C95.302 32.17 95.1206 32.1473 94.7806 32.102C94.4633 32.0793 94.044 32.068 93.5226 32.068L91.9246 32.034L86.1106 31.966L83.3226 32C83.028 32 82.8806 31.9207 82.8806 31.762C82.8806 31.626 83.3226 31.524 84.2066 31.456C84.456 31.4333 84.6033 31.3767 84.6486 31.286C84.7166 31.1953 84.7506 30.946 84.7506 30.538V19.148C84.7506 17.8787 84.6486 17.21 84.4446 17.142C84.354 17.0967 84.15 17.074 83.8326 17.074C83.538 17.074 83.3453 17.0627 83.2546 17.04C83.0053 17.04 82.8806 16.9493 82.8806 16.768C82.8806 16.6093 83.028 16.53 83.3226 16.53L88.0146 16.564C88.264 16.5413 88.5246 16.53 88.7966 16.53C89.2273 16.53 89.4426 16.632 89.4426 16.836C89.4426 16.972 89.0686 17.0513 88.3206 17.074C87.958 17.0967 87.7426 17.176 87.6746 17.312C87.6066 17.448 87.5726 17.9353 87.5726 18.774V31.388C88.4793 31.4107 89.1366 31.422 89.5446 31.422C91.9926 31.422 93.5226 31.184 94.1346 30.708C94.6333 30.3227 94.9506 29.5067 95.0866 28.26C95.132 27.716 95.2566 27.444 95.4606 27.444C95.7553 27.444 95.9026 27.9427 95.9026 28.94ZM125.843 24.826C125.843 25.0073 125.571 25.098 125.027 25.098C123.803 25.098 123.123 25.2793 122.987 25.642C122.897 25.8913 122.851 26.8773 122.851 28.6V29.688C121.673 30.6853 120.551 31.388 119.485 31.796C118.42 32.204 117.139 32.408 115.643 32.408C112.062 32.408 109.217 31.3427 107.109 29.212C105.001 27.0587 103.947 24.146 103.947 20.474C103.947 16.7567 104.979 13.7533 107.041 11.464C109.104 9.17467 111.824 8.03 115.201 8.03C116.675 8.03 118.284 8.438 120.029 9.254C120.551 9.50333 120.981 9.628 121.321 9.628C121.752 9.628 122.035 9.356 122.171 8.812C122.285 8.49467 122.421 8.336 122.579 8.336C122.761 8.336 122.851 8.438 122.851 8.642C122.851 8.66467 122.829 8.88 122.783 9.288C122.625 10.6253 122.557 11.6113 122.579 12.246L122.613 14.082C122.636 15.0113 122.625 15.5893 122.579 15.816C122.534 16.0427 122.409 16.156 122.205 16.156C122.001 16.156 121.888 15.9973 121.865 15.68C121.752 13.504 121.117 11.7927 119.961 10.546C118.805 9.27667 117.287 8.642 115.405 8.642C113.048 8.642 111.178 9.696 109.795 11.804C108.435 13.8893 107.755 16.7453 107.755 20.372C107.755 23.8853 108.447 26.6733 109.829 28.736C111.235 30.776 113.127 31.796 115.507 31.796C117.321 31.796 118.567 31.2747 119.247 30.232C119.587 29.7107 119.757 28.77 119.757 27.41C119.757 26.2767 119.644 25.608 119.417 25.404C119.213 25.2 118.477 25.1093 117.207 25.132C116.89 25.132 116.686 25.1207 116.595 25.098C116.505 25.0527 116.459 24.9733 116.459 24.86C116.459 24.6107 116.709 24.486 117.207 24.486H117.819C118.318 24.554 119.565 24.5767 121.559 24.554L124.279 24.52C124.438 24.52 124.608 24.5087 124.789 24.486C124.971 24.486 125.095 24.486 125.163 24.486C125.617 24.486 125.843 24.5993 125.843 24.826ZM141.009 31.83C141.009 31.966 140.782 32.034 140.329 32.034H140.091L137.983 31.966H137.031C136.645 31.966 136.113 31.9773 135.433 32L134.413 32.034L133.801 32.068H133.631C133.223 32.068 133.019 31.9773 133.019 31.796C133.019 31.6147 133.427 31.5127 134.243 31.49C135.217 31.4673 135.705 31.354 135.705 31.15C135.705 31.1047 135.637 30.8893 135.501 30.504C135.455 30.3227 135.195 29.5633 134.719 28.226L134.311 27.07H129.449C128.519 29.4047 128.055 30.7533 128.055 31.116C128.055 31.32 128.191 31.4333 128.463 31.456L128.905 31.49H129.415L129.721 31.524C129.993 31.524 130.129 31.6033 130.129 31.762C130.129 31.9433 129.891 32.034 129.415 32.034C129.347 32.034 128.939 32.0227 128.191 32C127.465 31.9547 126.819 31.932 126.253 31.932H125.947L125.641 31.966L125.267 32H125.199C124.836 32 124.655 31.932 124.655 31.796C124.655 31.6373 124.802 31.5467 125.097 31.524C125.505 31.5013 125.777 31.4787 125.913 31.456C126.298 31.388 126.547 31.286 126.661 31.15C126.797 31.082 127.352 29.79 128.327 27.274C128.712 26.254 129.086 25.302 129.449 24.418C129.585 24.1007 129.675 23.8627 129.721 23.704C129.766 23.5453 129.857 23.3073 129.993 22.99C130.378 22.0607 130.922 20.6553 131.625 18.774L132.135 17.346L132.373 16.734C132.509 16.394 132.645 16.224 132.781 16.224C132.849 16.224 132.996 16.5413 133.223 17.176C133.903 18.8307 135.659 23.2053 138.493 30.3C138.765 31.0027 139.025 31.3767 139.275 31.422C139.343 31.4447 139.705 31.4787 140.363 31.524C140.793 31.5467 141.009 31.6487 141.009 31.83ZM134.107 26.458L131.897 20.644C131.353 22.004 130.605 23.942 129.653 26.458H134.107ZM156.019 16.768C156.019 16.972 155.826 17.0513 155.441 17.006C154.806 17.0287 154.376 17.108 154.149 17.244C153.922 17.3573 153.73 17.618 153.571 18.026L153.367 18.57C152.098 21.7887 150.488 26.084 148.539 31.456C148.358 32.0227 148.176 32.306 147.995 32.306C147.814 32.306 147.632 32.0453 147.451 31.524C146.544 29.0307 145.218 25.54 143.473 21.052C143.246 20.4627 142.918 19.5787 142.487 18.4C142.238 17.6973 142 17.2893 141.773 17.176C141.569 17.04 141.025 16.972 140.141 16.972C139.892 16.972 139.767 16.904 139.767 16.768C139.767 16.564 139.926 16.462 140.243 16.462C140.719 16.462 141.15 16.4733 141.535 16.496C141.943 16.5187 142.702 16.53 143.813 16.53C144.017 16.53 144.368 16.5187 144.867 16.496C145.343 16.496 145.694 16.496 145.921 16.496H146.873C147.462 16.496 147.757 16.5867 147.757 16.768C147.757 16.9267 147.587 17.0287 147.247 17.074H146.737L145.989 17.108C145.286 17.1307 144.935 17.2213 144.935 17.38C144.935 17.4707 145.524 19.0573 146.703 22.14C146.748 22.2307 147.451 24.1233 148.811 27.818C148.97 27.3873 149.446 26.1407 150.239 24.078L151.667 20.338C152.324 18.6607 152.653 17.686 152.653 17.414C152.653 17.1873 152.46 17.0627 152.075 17.04L151.293 17.006H150.749C150.568 17.006 150.477 16.9493 150.477 16.836C150.477 16.632 150.806 16.53 151.463 16.53H152.109C152.336 16.53 152.664 16.53 153.095 16.53C153.526 16.5527 153.775 16.564 153.843 16.564C153.956 16.564 154.172 16.5527 154.489 16.53C154.829 16.53 155.135 16.53 155.407 16.53H155.509C155.849 16.53 156.019 16.6093 156.019 16.768ZM162.922 31.796C162.922 31.932 162.82 32 162.616 32H162.276L161.562 31.966H160.678C160.497 31.966 160.304 31.9547 160.1 31.932C159.919 31.932 159.794 31.932 159.726 31.932C159.499 31.932 159.069 31.9433 158.434 31.966C157.822 31.9887 157.357 32 157.04 32H156.904C156.519 32 156.326 31.932 156.326 31.796C156.326 31.6147 156.575 31.5127 157.074 31.49C157.754 31.4447 158.105 31.3653 158.128 31.252C158.173 31.1387 158.196 30.6513 158.196 29.79V18.842C158.196 17.958 158.173 17.448 158.128 17.312C158.083 17.1533 157.913 17.0627 157.618 17.04L156.938 17.006H156.598C156.394 17.006 156.292 16.9267 156.292 16.768C156.292 16.6093 156.439 16.53 156.734 16.53C156.711 16.53 156.779 16.53 156.938 16.53C157.097 16.5527 157.346 16.564 157.686 16.564H160.134C160.27 16.564 160.474 16.5527 160.746 16.53C161.018 16.53 161.267 16.53 161.494 16.53H162.344C162.707 16.53 162.888 16.6207 162.888 16.802C162.888 16.938 162.503 17.0173 161.732 17.04C161.415 17.04 161.222 17.0967 161.154 17.21C161.086 17.3007 161.052 17.6067 161.052 18.128V30.946C161.052 31.1727 161.131 31.32 161.29 31.388C161.471 31.456 161.879 31.5127 162.514 31.558C162.786 31.5807 162.922 31.66 162.922 31.796ZM178.74 31.184C178.74 31.9093 178.105 32.272 176.836 32.272C175.612 32.272 174.615 31.8073 173.844 30.878C173.504 30.47 173.277 30.062 173.164 29.654C173.051 29.246 172.915 28.2827 172.756 26.764C172.643 25.7893 172.325 25.1093 171.804 24.724C171.305 24.3387 170.433 24.1233 169.186 24.078V31.082C169.118 31.3993 169.696 31.558 170.92 31.558C171.169 31.558 171.294 31.6373 171.294 31.796C171.294 31.9547 171.135 32.034 170.818 32.034C170.569 32.034 170.331 32.0227 170.104 32H168.914C168.415 32 167.815 32.0113 167.112 32.034C166.432 32.034 166.058 32.034 165.99 32.034H165.344C164.709 32.034 164.392 31.9547 164.392 31.796C164.392 31.6147 164.505 31.524 164.732 31.524C164.8 31.524 164.913 31.5353 165.072 31.558H165.208C165.979 31.558 166.364 31.3993 166.364 31.082V17.652C166.364 17.4027 166.296 17.244 166.16 17.176C166.047 17.0853 165.718 17.04 165.174 17.04C164.653 17.04 164.392 16.9493 164.392 16.768C164.392 16.6093 164.551 16.53 164.868 16.53H165.106C165.469 16.5753 166.545 16.598 168.336 16.598C169.084 16.598 169.696 16.5867 170.172 16.564C170.648 16.5413 171.022 16.53 171.294 16.53C172.813 16.53 174.025 16.8473 174.932 17.482C175.861 18.094 176.326 18.91 176.326 19.93C176.326 21.0407 175.839 21.9473 174.864 22.65C173.889 23.33 172.518 23.7267 170.75 23.84C172.654 24.044 173.957 24.5427 174.66 25.336C175.385 26.1293 175.85 27.5573 176.054 29.62C176.19 31.0253 176.609 31.728 177.312 31.728C177.425 31.728 177.482 31.694 177.482 31.626C177.482 31.6033 177.448 31.5353 177.38 31.422C177.335 31.286 177.312 31.184 177.312 31.116C177.312 30.6853 177.539 30.47 177.992 30.47C178.491 30.47 178.74 30.708 178.74 31.184ZM173.368 20.134C173.368 18.094 172.359 17.074 170.342 17.074C169.821 17.074 169.492 17.1307 169.356 17.244C169.243 17.3347 169.186 17.5727 169.186 17.958V23.534C171.974 23.534 173.368 22.4007 173.368 20.134ZM185.932 31.796C185.932 31.932 185.83 32 185.626 32H185.286L184.572 31.966H183.688C183.506 31.966 183.314 31.9547 183.11 31.932C182.928 31.932 182.804 31.932 182.736 31.932C182.509 31.932 182.078 31.9433 181.444 31.966C180.832 31.9887 180.367 32 180.05 32H179.914C179.528 32 179.336 31.932 179.336 31.796C179.336 31.6147 179.585 31.5127 180.084 31.49C180.764 31.4447 181.115 31.3653 181.138 31.252C181.183 31.1387 181.206 30.6513 181.206 29.79V18.842C181.206 17.958 181.183 17.448 181.138 17.312C181.092 17.1533 180.922 17.0627 180.628 17.04L179.948 17.006H179.608C179.404 17.006 179.302 16.9267 179.302 16.768C179.302 16.6093 179.449 16.53 179.744 16.53C179.721 16.53 179.789 16.53 179.948 16.53C180.106 16.5527 180.356 16.564 180.696 16.564H183.144C183.28 16.564 183.484 16.5527 183.756 16.53C184.028 16.53 184.277 16.53 184.504 16.53H185.354C185.716 16.53 185.898 16.6207 185.898 16.802C185.898 16.938 185.512 17.0173 184.742 17.04C184.424 17.04 184.232 17.0967 184.164 17.21C184.096 17.3007 184.062 17.6067 184.062 18.128V30.946C184.062 31.1727 184.141 31.32 184.3 31.388C184.481 31.456 184.889 31.5127 185.524 31.558C185.796 31.5807 185.932 31.66 185.932 31.796ZM202.634 31.83C202.634 31.966 202.407 32.034 201.954 32.034H201.716L199.608 31.966H198.656C198.27 31.966 197.738 31.9773 197.058 32L196.038 32.034L195.426 32.068H195.256C194.848 32.068 194.644 31.9773 194.644 31.796C194.644 31.6147 195.052 31.5127 195.868 31.49C196.842 31.4673 197.33 31.354 197.33 31.15C197.33 31.1047 197.262 30.8893 197.126 30.504C197.08 30.3227 196.82 29.5633 196.344 28.226L195.936 27.07H191.074C190.144 29.4047 189.68 30.7533 189.68 31.116C189.68 31.32 189.816 31.4333 190.088 31.456L190.53 31.49H191.04L191.346 31.524C191.618 31.524 191.754 31.6033 191.754 31.762C191.754 31.9433 191.516 32.034 191.04 32.034C190.972 32.034 190.564 32.0227 189.816 32C189.09 31.9547 188.444 31.932 187.878 31.932H187.572L187.266 31.966L186.892 32H186.824C186.461 32 186.28 31.932 186.28 31.796C186.28 31.6373 186.427 31.5467 186.722 31.524C187.13 31.5013 187.402 31.4787 187.538 31.456C187.923 31.388 188.172 31.286 188.286 31.15C188.422 31.082 188.977 29.79 189.952 27.274C190.337 26.254 190.711 25.302 191.074 24.418C191.21 24.1007 191.3 23.8627 191.346 23.704C191.391 23.5453 191.482 23.3073 191.618 22.99C192.003 22.0607 192.547 20.6553 193.25 18.774L193.76 17.346L193.998 16.734C194.134 16.394 194.27 16.224 194.406 16.224C194.474 16.224 194.621 16.5413 194.848 17.176C195.528 18.8307 197.284 23.2053 200.118 30.3C200.39 31.0027 200.65 31.3767 200.9 31.422C200.968 31.4447 201.33 31.4787 201.988 31.524C202.418 31.5467 202.634 31.6487 202.634 31.83ZM195.732 26.458L193.522 20.644C192.978 22.004 192.23 23.942 191.278 26.458H195.732Z" fill="#871829"/>
<line x1="85" y1="45.25" x2="1" y2="45.25" stroke="#871829" stroke-width="0.5"/>
<path d="M98.519 42.5552C98.1821 41.8289 98.0137 41.1514 98.0137 40.5225C98.0137 39.8112 98.2233 39.1523 98.6426 38.5459C99.0618 37.932 99.5934 37.4378 100.237 37.0635C100.889 36.6891 101.562 36.502 102.259 36.502C103.037 36.502 103.685 36.7191 104.202 37.1533C104.726 37.5801 104.988 38.0929 104.988 38.6919C104.988 39.1411 104.861 39.5566 104.606 39.9385C104.359 40.3203 104.097 40.5112 103.82 40.5112C103.685 40.5112 103.618 40.4401 103.618 40.2979C103.618 40.2454 103.655 40.1294 103.73 39.9497C103.85 39.6577 103.91 39.362 103.91 39.0625C103.91 38.6133 103.726 38.2502 103.359 37.9731C102.993 37.6886 102.551 37.5464 102.034 37.5464C101.203 37.5464 100.424 37.8908 99.6982 38.5796C98.9795 39.2609 98.6201 40.0433 98.6201 40.9268C98.6201 41.3236 98.6725 41.6605 98.7773 41.9375C98.8822 42.207 98.9757 42.383 99.0581 42.4653C99.1479 42.5477 99.2715 42.5889 99.4287 42.5889C100.462 42.5889 100.979 42.8883 100.979 43.4873C100.979 43.637 100.922 43.7793 100.81 43.9141C100.705 44.0488 100.548 44.1162 100.338 44.1162C100.106 44.1162 99.8105 43.9627 99.4512 43.6558C99.0693 43.3263 98.695 43.1616 98.3281 43.1616C97.8564 43.1616 97.4072 43.3975 96.9805 43.8691C96.5612 44.3333 96.3516 44.8874 96.3516 45.5312C96.3516 46.7816 96.973 47.9645 98.2158 49.0801C99.4587 50.1882 101.005 50.7422 102.854 50.7422C104.606 50.7422 106.103 50.3079 107.346 49.4395C108.597 48.5635 109.222 47.519 109.222 46.3062C109.222 45.4976 108.915 44.7975 108.301 44.2061C107.687 43.6071 106.856 43.3076 105.808 43.3076C104.962 43.3076 104.205 43.5397 103.539 44.0039C102.88 44.4681 102.551 45.0483 102.551 45.7446C102.551 46.1639 102.671 46.5083 102.91 46.7778C103.15 47.0474 103.397 47.1821 103.651 47.1821C103.943 47.1821 104.089 47.0249 104.089 46.7104L104.078 46.5757C104.071 46.4784 104.067 46.411 104.067 46.3735C104.067 46.0441 104.157 45.7746 104.336 45.5649C104.516 45.3478 104.744 45.2393 105.021 45.2393C105.284 45.2393 105.512 45.3328 105.707 45.52C105.901 45.6997 105.999 45.9543 105.999 46.2837C105.999 46.7554 105.834 47.1484 105.504 47.4629C105.182 47.7773 104.767 47.9346 104.258 47.9346C103.651 47.9346 103.127 47.7212 102.686 47.2944C102.251 46.8602 102.034 46.3286 102.034 45.6997C102.034 44.7788 102.42 43.9403 103.191 43.1841C103.962 42.4279 105.362 42.0498 107.391 42.0498C109.21 42.0498 110.532 41.799 111.355 41.2974C112.179 40.8032 112.591 40.0508 112.591 39.04C112.591 38.4411 112.407 37.9507 112.041 37.5688C111.674 37.1795 111.209 36.9849 110.648 36.9849C110.371 36.9849 110.161 37.026 110.019 37.1084C109.884 37.1833 109.817 37.3031 109.817 37.4678C109.817 37.5726 109.884 37.7223 110.019 37.917C110.191 38.1641 110.277 38.4036 110.277 38.6357C110.277 38.9128 110.169 39.1561 109.952 39.3657C109.742 39.5754 109.48 39.6802 109.166 39.6802C108.791 39.6802 108.507 39.5604 108.312 39.3208C108.117 39.0812 108.02 38.8005 108.02 38.4785C108.02 37.9694 108.267 37.5127 108.761 37.1084C109.263 36.7041 109.899 36.502 110.67 36.502C111.464 36.502 112.123 36.7939 112.647 37.3779C113.179 37.9544 113.444 38.6507 113.444 39.4668C113.444 40.238 113.216 40.9417 112.759 41.5781C112.31 42.2145 111.737 42.6637 111.041 42.9258C110.352 43.1878 109.383 43.3413 108.132 43.3862C109.33 44.2323 109.929 45.3179 109.929 46.6431C109.929 47.6388 109.562 48.6009 108.829 49.5293C108.095 50.4577 107.204 51.1465 106.156 51.5957C105.115 52.0449 103.842 52.2695 102.337 52.2695C101.117 52.2695 100.129 52.1385 99.3726 51.8765C98.6164 51.6069 97.8939 51.2176 97.2051 50.7085C96.5238 50.1994 95.9847 49.578 95.5879 48.8442C95.1986 48.103 95.0039 47.3094 95.0039 46.4634C95.0039 45.4302 95.2996 44.5617 95.8911 43.8579C96.4826 43.1541 97.3586 42.7199 98.519 42.5552Z" fill="#871829"/>
<line x1="205" y1="45.25" x2="121" y2="45.25" stroke="#871829" stroke-width="0.5"/>
<path d="M14.3562 73.37C14.3562 75.3193 13.6082 76.9853 12.1122 78.368C10.6388 79.728 8.85949 80.408 6.77416 80.408C5.55016 80.408 4.08816 80.034 2.38816 79.286C1.93482 79.082 1.59482 78.98 1.36816 78.98C1.09616 78.98 0.926156 79.3087 0.858156 79.966C0.83549 80.306 0.688156 80.476 0.416156 80.476C0.18949 80.476 0.0761563 80.34 0.0761563 80.068C0.0761563 79.8867 0.0874896 79.7507 0.110156 79.66C0.29149 78.2773 0.382156 76.9967 0.382156 75.818C0.382156 75.5913 0.35949 74.9567 0.314156 73.914C0.29149 73.778 0.280156 73.5967 0.280156 73.37C0.280156 73.03 0.416156 72.86 0.688156 72.86C0.914823 72.86 1.07349 73.132 1.16416 73.676C1.75349 77.7107 3.66882 79.728 6.91016 79.728C8.29282 79.728 9.35816 79.3427 10.1062 78.572C10.8768 77.7787 11.2622 76.668 11.2622 75.24C11.2622 73.9707 10.8882 72.894 10.1402 72.01C9.41482 71.1033 8.15682 70.208 6.36616 69.324C4.21282 68.2587 2.71682 67.2273 1.87816 66.23C1.03949 65.2327 0.620156 63.9973 0.620156 62.524C0.620156 60.6427 1.22082 59.09 2.42216 57.866C3.64616 56.642 5.18749 56.03 7.04616 56.03C7.81682 56.03 8.88216 56.2907 10.2422 56.812C10.7182 56.9933 11.0695 57.084 11.2962 57.084C11.5455 57.084 11.7042 57.0387 11.7722 56.948C11.8628 56.8573 11.9422 56.6193 12.0102 56.234C12.0555 56.0073 12.1802 55.894 12.3842 55.894C12.6108 55.894 12.7242 56.03 12.7242 56.302C12.7242 56.4833 12.7128 56.6193 12.6902 56.71C12.6222 57.254 12.5882 57.9113 12.5882 58.682C12.5882 59.77 12.6448 60.6313 12.7582 61.266L12.7922 61.81C12.8148 62.0593 12.7128 62.184 12.4862 62.184C12.2368 62.184 12.0668 61.9233 11.9762 61.402C11.7268 60.0647 11.1375 58.954 10.2082 58.07C9.27882 57.1633 8.23616 56.71 7.08016 56.71C5.94682 56.71 5.04016 57.0727 4.36016 57.798C3.70282 58.5233 3.37416 59.5093 3.37416 60.756C3.37416 62.2067 3.86149 63.374 4.83616 64.258C5.38016 64.7567 6.55882 65.4593 8.37216 66.366C10.5028 67.4313 12.0328 68.5193 12.9622 69.63C13.8915 70.718 14.3562 71.9647 14.3562 73.37ZM29.0118 76.328C29.0118 76.3507 29.0004 76.498 28.9778 76.77C28.9551 77.0193 28.9438 77.246 28.9438 77.45L28.9098 79.388C28.9098 79.6147 28.9211 79.864 28.9438 80.136L23.2998 80.034L16.8398 80.068C16.3638 80.068 16.1258 79.9887 16.1258 79.83C16.1258 79.6487 16.2618 79.558 16.5338 79.558C17.2591 79.558 17.6784 79.5127 17.7918 79.422C17.9278 79.3087 17.9958 78.9347 17.9958 78.3V66.604C17.9958 65.6747 17.9164 65.1873 17.7578 65.142C17.5991 65.074 17.2024 65.04 16.5678 65.04C16.2958 65.04 16.1598 64.9607 16.1598 64.802C16.1598 64.6207 16.3071 64.53 16.6018 64.53H17.4178C17.6444 64.53 17.8711 64.53 18.0978 64.53C18.3471 64.5527 18.4718 64.564 18.4718 64.564H19.3218C19.4351 64.564 20.0018 64.5527 21.0218 64.53C22.0644 64.53 23.3111 64.53 24.7618 64.53H26.7678C27.3571 64.53 27.8444 64.5073 28.2298 64.462V64.7L28.2638 65.21C28.3091 65.55 28.3998 66.57 28.5358 68.27C28.5584 68.3833 28.5698 68.5193 28.5698 68.678C28.5698 68.9727 28.4904 69.12 28.3318 69.12C28.1278 69.12 27.9804 68.8933 27.8898 68.44C27.5724 66.7173 26.9718 65.7087 26.0878 65.414C25.5891 65.2553 24.4104 65.176 22.5518 65.176H20.8178V71.534H21.6338C23.0844 71.534 23.9798 71.4207 24.3197 71.194C24.6598 70.9447 24.8864 70.2873 24.9998 69.222C25.0678 68.5873 25.2038 68.27 25.4078 68.27C25.6344 68.27 25.7478 68.4967 25.7478 68.95C25.7478 69.222 25.7251 69.6413 25.6798 70.208C25.6571 70.7747 25.6458 71.2053 25.6458 71.5C25.6458 72.9733 25.6798 73.982 25.7478 74.526C25.7704 74.7073 25.7818 74.8547 25.7818 74.968C25.7818 75.3307 25.6684 75.512 25.4418 75.512C25.2378 75.512 25.1018 75.2287 25.0338 74.662C24.8978 73.438 24.6711 72.7127 24.3538 72.486C24.0364 72.2367 23.1411 72.112 21.6678 72.112H20.8178V79.456C24.1498 79.4333 26.1104 79.3427 26.6998 79.184C27.6064 78.9347 28.1391 77.8467 28.2978 75.92C28.3204 75.58 28.4451 75.41 28.6718 75.41C28.8984 75.41 29.0118 75.716 29.0118 76.328ZM42.7475 75.954C42.7475 76.9967 42.3622 77.858 41.5915 78.538C40.8435 79.218 39.8008 79.66 38.4635 79.864C37.6702 79.9773 35.9135 80.034 33.1935 80.034C31.9922 80.034 31.3008 80.0227 31.1195 80H31.0515L30.5755 80.034C30.4168 80.0567 30.3375 79.9773 30.3375 79.796C30.3375 79.66 30.3828 79.5807 30.4735 79.558C30.5642 79.5353 30.8362 79.524 31.2895 79.524C31.7428 79.524 32.0035 79.4787 32.0715 79.388C32.1395 79.2973 32.1735 79.014 32.1735 78.538V66.264C32.1735 65.6747 32.1395 65.3347 32.0715 65.244C32.0035 65.1307 31.6408 65.0627 30.9835 65.04C30.5075 65.0173 30.2695 64.938 30.2695 64.802C30.2695 64.6207 30.5188 64.53 31.0175 64.53H31.5955C31.8448 64.53 32.5135 64.5413 33.6015 64.564L35.2335 64.598C36.7975 64.6207 37.7835 64.6547 38.1915 64.7C38.7355 64.7453 39.2342 64.8473 39.6875 65.006C41.3195 65.5953 42.1355 66.6267 42.1355 68.1C42.1355 70.1627 40.5488 71.3867 37.3755 71.772L37.4095 71.874C39.0642 71.8967 40.3675 72.282 41.3195 73.03C42.2715 73.7553 42.7475 74.73 42.7475 75.954ZM39.0755 68.304C39.0755 66.808 38.7355 65.8673 38.0555 65.482C37.6702 65.2553 37.0242 65.142 36.1175 65.142C35.7322 65.142 35.4488 65.1533 35.2675 65.176L34.9955 65.21V71.534C36.2195 71.5113 37.0582 71.398 37.5115 71.194C38.5542 70.718 39.0755 69.7547 39.0755 68.304ZM39.7895 75.682C39.7895 73.2793 38.4295 72.078 35.7095 72.078H34.9955V78.912C34.9955 79.184 35.0522 79.354 35.1655 79.422C35.2788 79.4673 35.6075 79.49 36.1515 79.49C38.5768 79.49 39.7895 78.2207 39.7895 75.682ZM59.6776 79.83C59.6776 79.966 59.451 80.034 58.9976 80.034H58.7596L56.6516 79.966H55.6996C55.3143 79.966 54.7816 79.9773 54.1016 80L53.0816 80.034L52.4696 80.068H52.2996C51.8916 80.068 51.6876 79.9773 51.6876 79.796C51.6876 79.6147 52.0956 79.5127 52.9116 79.49C53.8863 79.4673 54.3736 79.354 54.3736 79.15C54.3736 79.1047 54.3056 78.8893 54.1696 78.504C54.1243 78.3227 53.8636 77.5633 53.3876 76.226L52.9796 75.07H48.1176C47.1883 77.4047 46.7236 78.7533 46.7236 79.116C46.7236 79.32 46.8596 79.4333 47.1316 79.456L47.5736 79.49H48.0836L48.3896 79.524C48.6616 79.524 48.7976 79.6033 48.7976 79.762C48.7976 79.9433 48.5596 80.034 48.0836 80.034C48.0156 80.034 47.6076 80.0227 46.8596 80C46.1343 79.9547 45.4883 79.932 44.9216 79.932H44.6156L44.3096 79.966L43.9356 80H43.8676C43.505 80 43.3236 79.932 43.3236 79.796C43.3236 79.6373 43.471 79.5467 43.7656 79.524C44.1736 79.5013 44.4456 79.4787 44.5816 79.456C44.967 79.388 45.2163 79.286 45.3296 79.15C45.4656 79.082 46.021 77.79 46.9956 75.274C47.381 74.254 47.755 73.302 48.1176 72.418C48.2536 72.1007 48.3443 71.8627 48.3896 71.704C48.435 71.5453 48.5256 71.3073 48.6616 70.99C49.047 70.0607 49.591 68.6553 50.2936 66.774L50.8036 65.346L51.0416 64.734C51.1776 64.394 51.3136 64.224 51.4496 64.224C51.5176 64.224 51.665 64.5413 51.8916 65.176C52.5716 66.8307 54.3283 71.2053 57.1616 78.3C57.4336 79.0027 57.6943 79.3767 57.9436 79.422C58.0116 79.4447 58.3743 79.4787 59.0316 79.524C59.4623 79.5467 59.6776 79.6487 59.6776 79.83ZM52.7756 74.458L50.5656 68.644C50.0216 70.004 49.2736 71.942 48.3216 74.458H52.7756ZM70.2338 75.648C70.2338 76.9173 69.6898 78.0053 68.6018 78.912C67.5138 79.8187 66.1992 80.272 64.6578 80.272C63.5018 80.272 62.3118 79.9093 61.0878 79.184C60.9518 79.1387 60.8612 79.116 60.8158 79.116C60.6798 79.116 60.6005 79.2293 60.5778 79.456C60.5552 79.6827 60.5212 79.8753 60.4758 80.034C60.4305 80.2153 60.3172 80.306 60.1358 80.306C59.9092 80.306 59.7958 80.1927 59.7958 79.966C59.7958 79.9207 59.8298 79.5807 59.8978 78.946C59.9658 78.3113 59.9998 77.7673 59.9998 77.314C59.9998 77.11 59.9885 76.8267 59.9658 76.464C59.9432 76.0787 59.9318 75.784 59.9318 75.58C59.9318 75.1493 60.0452 74.934 60.2718 74.934C60.4985 74.934 60.6685 75.2853 60.7818 75.988C61.2125 78.4813 62.5498 79.728 64.7938 79.728C66.6978 79.728 67.6498 78.776 67.6498 76.872C67.6498 76.0333 67.4232 75.3533 66.9698 74.832C66.5165 74.3107 65.6325 73.7213 64.3178 73.064C62.5952 72.2027 61.4958 71.5227 61.0198 71.024C60.4078 70.3667 60.1018 69.5507 60.1018 68.576C60.1018 67.3293 60.5552 66.3093 61.4618 65.516C62.3685 64.7 63.5132 64.292 64.8958 64.292C65.7572 64.292 66.6752 64.5527 67.6498 65.074C67.7632 65.142 67.8538 65.176 67.9218 65.176C68.0805 65.176 68.1825 65.0173 68.2278 64.7C68.2732 64.36 68.4092 64.19 68.6358 64.19C68.8625 64.19 68.9758 64.3033 68.9758 64.53C68.9758 64.5753 68.9645 64.666 68.9418 64.802C68.8965 65.1647 68.8738 65.6293 68.8738 66.196C68.8738 66.536 68.9078 67.148 68.9758 68.032C68.9985 68.1227 69.0098 68.2247 69.0098 68.338C69.0098 68.61 68.9192 68.746 68.7378 68.746C68.5338 68.746 68.3865 68.542 68.2958 68.134C68.0918 67.1367 67.6725 66.3433 67.0378 65.754C66.4258 65.142 65.7005 64.836 64.8618 64.836C63.2298 64.836 62.4138 65.7087 62.4138 67.454C62.4138 68.2247 62.6292 68.8593 63.0598 69.358C63.2865 69.63 63.5358 69.8453 63.8078 70.004C64.0798 70.1627 64.8732 70.5593 66.1878 71.194C67.6612 71.9193 68.7038 72.622 69.3158 73.302C69.9278 73.9593 70.2338 74.7413 70.2338 75.648ZM85.0002 68.78C85.0002 69.0973 84.8642 69.256 84.5922 69.256C84.2975 69.256 84.1389 69.0407 84.1162 68.61C84.0482 67.6807 83.8555 66.9213 83.5382 66.332C83.1075 65.516 82.1215 65.108 80.5802 65.108C80.3535 65.108 80.0022 65.1193 79.5262 65.142V78.81C79.5262 79.2407 79.8549 79.4673 80.5122 79.49C81.1695 79.5127 81.4982 79.6033 81.4982 79.762C81.4982 79.9207 81.3055 80 80.9202 80H80.6822C80.4782 80 80.1609 79.9887 79.7302 79.966C79.2995 79.966 78.9935 79.966 78.8122 79.966C78.7669 79.966 78.5062 79.966 78.0302 79.966C77.5542 79.9887 76.9422 80 76.1942 80H75.3782C74.9249 80 74.6982 79.9207 74.6982 79.762C74.6982 79.6033 75.0722 79.5127 75.8202 79.49C76.0922 79.49 76.2735 79.4673 76.3642 79.422C76.5455 79.3767 76.6475 79.2633 76.6702 79.082C76.6929 78.878 76.7042 78.3 76.7042 77.348V65.142C74.9362 65.1193 73.7802 65.3007 73.2362 65.686C72.7149 66.0713 72.3635 66.978 72.1822 68.406C72.1142 68.9273 71.9669 69.188 71.7402 69.188C71.5362 69.188 71.4342 68.9273 71.4342 68.406C71.4342 67.7487 71.5362 66.4567 71.7402 64.53L79.6622 64.598C80.3649 64.598 81.7929 64.5753 83.9462 64.53C84.1275 64.53 84.3655 64.4847 84.6602 64.394L84.6942 65.108L84.7962 66.332L84.8982 67.76L84.9662 68.372C84.9889 68.576 85.0002 68.712 85.0002 68.78ZM92.7803 79.796C92.7803 79.932 92.6783 80 92.4743 80H92.1343L91.4203 79.966H90.5363C90.355 79.966 90.1623 79.9547 89.9583 79.932C89.777 79.932 89.6523 79.932 89.5843 79.932C89.3577 79.932 88.927 79.9433 88.2923 79.966C87.6803 79.9887 87.2157 80 86.8983 80H86.7623C86.377 80 86.1843 79.932 86.1843 79.796C86.1843 79.6147 86.4337 79.5127 86.9323 79.49C87.6123 79.4447 87.9637 79.3653 87.9863 79.252C88.0317 79.1387 88.0543 78.6513 88.0543 77.79V66.842C88.0543 65.958 88.0317 65.448 87.9863 65.312C87.941 65.1533 87.771 65.0627 87.4763 65.04L86.7963 65.006H86.4563C86.2523 65.006 86.1503 64.9267 86.1503 64.768C86.1503 64.6093 86.2977 64.53 86.5923 64.53C86.5697 64.53 86.6377 64.53 86.7963 64.53C86.955 64.5527 87.2043 64.564 87.5443 64.564H89.9923C90.1283 64.564 90.3323 64.5527 90.6043 64.53C90.8763 64.53 91.1257 64.53 91.3523 64.53H92.2023C92.565 64.53 92.7463 64.6207 92.7463 64.802C92.7463 64.938 92.361 65.0173 91.5903 65.04C91.273 65.04 91.0803 65.0967 91.0123 65.21C90.9443 65.3007 90.9103 65.6067 90.9103 66.128V78.946C90.9103 79.1727 90.9897 79.32 91.1483 79.388C91.3297 79.456 91.7377 79.5127 92.3723 79.558C92.6443 79.5807 92.7803 79.66 92.7803 79.796ZM109.482 79.83C109.482 79.966 109.256 80.034 108.802 80.034H108.564L106.456 79.966H105.504C105.119 79.966 104.586 79.9773 103.906 80L102.886 80.034L102.274 80.068H102.104C101.696 80.068 101.492 79.9773 101.492 79.796C101.492 79.6147 101.9 79.5127 102.716 79.49C103.691 79.4673 104.178 79.354 104.178 79.15C104.178 79.1047 104.11 78.8893 103.974 78.504C103.929 78.3227 103.668 77.5633 103.192 76.226L102.784 75.07H97.9223C96.993 77.4047 96.5283 78.7533 96.5283 79.116C96.5283 79.32 96.6643 79.4333 96.9363 79.456L97.3783 79.49H97.8883L98.1943 79.524C98.4663 79.524 98.6023 79.6033 98.6023 79.762C98.6023 79.9433 98.3643 80.034 97.8883 80.034C97.8203 80.034 97.4123 80.0227 96.6643 80C95.939 79.9547 95.293 79.932 94.7263 79.932H94.4203L94.1143 79.966L93.7403 80H93.6723C93.3096 80 93.1283 79.932 93.1283 79.796C93.1283 79.6373 93.2756 79.5467 93.5703 79.524C93.9783 79.5013 94.2503 79.4787 94.3863 79.456C94.7716 79.388 95.021 79.286 95.1343 79.15C95.2703 79.082 95.8256 77.79 96.8003 75.274C97.1856 74.254 97.5596 73.302 97.9223 72.418C98.0583 72.1007 98.149 71.8627 98.1943 71.704C98.2396 71.5453 98.3303 71.3073 98.4663 70.99C98.8516 70.0607 99.3956 68.6553 100.098 66.774L100.608 65.346L100.846 64.734C100.982 64.394 101.118 64.224 101.254 64.224C101.322 64.224 101.47 64.5413 101.696 65.176C102.376 66.8307 104.133 71.2053 106.966 78.3C107.238 79.0027 107.499 79.3767 107.748 79.422C107.816 79.4447 108.179 79.4787 108.836 79.524C109.267 79.5467 109.482 79.6487 109.482 79.83ZM102.58 74.458L100.37 68.644C99.8263 70.004 99.0783 71.942 98.1263 74.458H102.58ZM124.119 64.802C124.119 64.9833 123.869 65.074 123.371 65.074C123.303 65.074 123.144 65.0627 122.895 65.04H122.521C122.317 65.04 122.192 65.0853 122.147 65.176C122.124 65.2667 122.113 65.5727 122.113 66.094V78.572C122.113 79.388 122.101 79.864 122.079 80C122.056 80.136 121.954 80.204 121.773 80.204C121.523 80.204 120.719 79.2633 119.359 77.382C119.2 77.1327 118.951 76.7927 118.611 76.362C118.565 76.294 118.441 76.124 118.237 75.852C117.103 74.356 115.052 71.5453 112.083 67.42V78.13C112.083 78.9687 112.196 79.4107 112.423 79.456C112.672 79.5013 113.114 79.524 113.749 79.524H113.885C114.157 79.524 114.293 79.6033 114.293 79.762C114.293 79.9433 114.043 80.034 113.545 80.034C113.454 80.034 113.08 80.0113 112.423 79.966C112.083 79.9433 111.777 79.932 111.505 79.932C111.278 79.932 111.051 79.9433 110.825 79.966C110.394 80.0113 109.929 80.034 109.431 80.034C109.068 80.034 108.887 79.9433 108.887 79.762C108.887 79.6033 109.102 79.524 109.533 79.524H109.839L110.281 79.49C110.825 79.4447 111.108 79.3427 111.131 79.184C111.153 79.0933 111.165 78.7647 111.165 78.198V68.848C111.165 67.148 111.063 66.128 110.859 65.788C110.587 65.3347 110.054 65.108 109.261 65.108C108.694 65.108 108.411 65.006 108.411 64.802C108.411 64.6433 108.558 64.564 108.853 64.564H108.989L110.859 64.598C110.949 64.598 111.097 64.598 111.301 64.598C111.527 64.5753 111.731 64.564 111.913 64.564H113.171L121.195 75.58V66.128C121.195 65.5613 121.172 65.2327 121.127 65.142C121.081 65.0513 120.9 65.006 120.583 65.006C120.288 65.006 120.05 65.0173 119.869 65.04H119.665C119.234 65.04 119.019 64.9493 119.019 64.768C119.019 64.6547 119.121 64.5867 119.325 64.564C119.551 64.5413 120.322 64.53 121.637 64.53C122.883 64.53 123.609 64.5413 123.813 64.564C124.017 64.5867 124.119 64.666 124.119 64.802ZM151.596 72.384C151.596 72.3613 151.573 72.6673 151.528 73.302C151.437 74.5713 151.392 75.8407 151.392 77.11C151.392 77.2687 151.414 77.5633 151.46 77.994C151.505 78.402 151.528 78.9007 151.528 79.49V79.796C151.528 80.0907 151.437 80.238 151.256 80.238C151.074 80.238 150.916 80.068 150.78 79.728C150.462 78.9347 150.145 78.4473 149.828 78.266C148.196 79.694 146.235 80.408 143.946 80.408C140.614 80.408 137.848 79.252 135.65 76.94C133.474 74.6053 132.386 71.67 132.386 68.134C132.386 64.5753 133.383 61.674 135.378 59.43C137.395 57.1633 139.99 56.03 143.164 56.03C144.32 56.03 145.238 56.132 145.918 56.336C146.62 56.5173 147.482 56.9027 148.502 57.492C149 57.7867 149.374 57.934 149.624 57.934C149.828 57.934 150.02 57.7527 150.202 57.39C150.496 56.7553 150.734 56.438 150.916 56.438C151.097 56.438 151.188 56.5287 151.188 56.71C151.188 56.8007 151.165 56.948 151.12 57.152C150.87 58.24 150.746 60.28 150.746 63.272C150.746 63.7027 150.712 63.952 150.644 64.02C150.576 64.088 150.485 64.122 150.372 64.122C150.145 64.122 149.998 63.9067 149.93 63.476C149.635 61.6627 149.216 60.314 148.672 59.43C147.561 57.6167 145.816 56.71 143.436 56.71C141.6 56.71 140.149 57.322 139.084 58.546C137.157 60.7447 136.194 63.9633 136.194 68.202C136.194 71.9873 136.987 74.9227 138.574 77.008C139.956 78.8213 141.792 79.728 144.082 79.728C145.26 79.728 146.337 79.4333 147.312 78.844C148.286 78.2547 149.034 77.45 149.556 76.43C150.1 75.3873 150.519 74.1407 150.814 72.69C150.927 72.146 151.074 71.874 151.256 71.874C151.482 71.874 151.596 72.044 151.596 72.384ZM169.049 79.83C169.049 79.966 168.822 80.034 168.369 80.034H168.131L166.023 79.966H165.071C164.685 79.966 164.153 79.9773 163.473 80L162.453 80.034L161.841 80.068H161.671C161.263 80.068 161.059 79.9773 161.059 79.796C161.059 79.6147 161.467 79.5127 162.283 79.49C163.257 79.4673 163.745 79.354 163.745 79.15C163.745 79.1047 163.677 78.8893 163.541 78.504C163.495 78.3227 163.235 77.5633 162.759 76.226L162.351 75.07H157.489C156.559 77.4047 156.095 78.7533 156.095 79.116C156.095 79.32 156.231 79.4333 156.503 79.456L156.945 79.49H157.455L157.761 79.524C158.033 79.524 158.169 79.6033 158.169 79.762C158.169 79.9433 157.931 80.034 157.455 80.034C157.387 80.034 156.979 80.0227 156.231 80C155.505 79.9547 154.859 79.932 154.293 79.932H153.987L153.681 79.966L153.307 80H153.239C152.876 80 152.695 79.932 152.695 79.796C152.695 79.6373 152.842 79.5467 153.137 79.524C153.545 79.5013 153.817 79.4787 153.953 79.456C154.338 79.388 154.587 79.286 154.701 79.15C154.837 79.082 155.392 77.79 156.367 75.274C156.752 74.254 157.126 73.302 157.489 72.418C157.625 72.1007 157.715 71.8627 157.761 71.704C157.806 71.5453 157.897 71.3073 158.033 70.99C158.418 70.0607 158.962 68.6553 159.665 66.774L160.175 65.346L160.413 64.734C160.549 64.394 160.685 64.224 160.821 64.224C160.889 64.224 161.036 64.5413 161.263 65.176C161.943 66.8307 163.699 71.2053 166.533 78.3C166.805 79.0027 167.065 79.3767 167.315 79.422C167.383 79.4447 167.745 79.4787 168.403 79.524C168.833 79.5467 169.049 79.6487 169.049 79.83ZM162.147 74.458L159.937 68.644C159.393 70.004 158.645 71.942 157.693 74.458H162.147ZM179.605 75.648C179.605 76.9173 179.061 78.0053 177.973 78.912C176.885 79.8187 175.57 80.272 174.029 80.272C172.873 80.272 171.683 79.9093 170.459 79.184C170.323 79.1387 170.232 79.116 170.187 79.116C170.051 79.116 169.972 79.2293 169.949 79.456C169.926 79.6827 169.892 79.8753 169.847 80.034C169.802 80.2153 169.688 80.306 169.507 80.306C169.28 80.306 169.167 80.1927 169.167 79.966C169.167 79.9207 169.201 79.5807 169.269 78.946C169.337 78.3113 169.371 77.7673 169.371 77.314C169.371 77.11 169.36 76.8267 169.337 76.464C169.314 76.0787 169.303 75.784 169.303 75.58C169.303 75.1493 169.416 74.934 169.643 74.934C169.87 74.934 170.04 75.2853 170.153 75.988C170.584 78.4813 171.921 79.728 174.165 79.728C176.069 79.728 177.021 78.776 177.021 76.872C177.021 76.0333 176.794 75.3533 176.341 74.832C175.888 74.3107 175.004 73.7213 173.689 73.064C171.966 72.2027 170.867 71.5227 170.391 71.024C169.779 70.3667 169.473 69.5507 169.473 68.576C169.473 67.3293 169.926 66.3093 170.833 65.516C171.74 64.7 172.884 64.292 174.267 64.292C175.128 64.292 176.046 64.5527 177.021 65.074C177.134 65.142 177.225 65.176 177.293 65.176C177.452 65.176 177.554 65.0173 177.599 64.7C177.644 64.36 177.78 64.19 178.007 64.19C178.234 64.19 178.347 64.3033 178.347 64.53C178.347 64.5753 178.336 64.666 178.313 64.802C178.268 65.1647 178.245 65.6293 178.245 66.196C178.245 66.536 178.279 67.148 178.347 68.032C178.37 68.1227 178.381 68.2247 178.381 68.338C178.381 68.61 178.29 68.746 178.109 68.746C177.905 68.746 177.758 68.542 177.667 68.134C177.463 67.1367 177.044 66.3433 176.409 65.754C175.797 65.142 175.072 64.836 174.233 64.836C172.601 64.836 171.785 65.7087 171.785 67.454C171.785 68.2247 172 68.8593 172.431 69.358C172.658 69.63 172.907 69.8453 173.179 70.004C173.451 70.1627 174.244 70.5593 175.559 71.194C177.032 71.9193 178.075 72.622 178.687 73.302C179.299 73.9593 179.605 74.7413 179.605 75.648ZM196.275 79.83C196.275 79.966 196.049 80.034 195.595 80.034H195.357L193.249 79.966H192.297C191.912 79.966 191.379 79.9773 190.699 80L189.679 80.034L189.067 80.068H188.897C188.489 80.068 188.285 79.9773 188.285 79.796C188.285 79.6147 188.693 79.5127 189.509 79.49C190.484 79.4673 190.971 79.354 190.971 79.15C190.971 79.1047 190.903 78.8893 190.767 78.504C190.722 78.3227 190.461 77.5633 189.985 76.226L189.577 75.07H184.715C183.786 77.4047 183.321 78.7533 183.321 79.116C183.321 79.32 183.457 79.4333 183.729 79.456L184.171 79.49H184.681L184.987 79.524C185.259 79.524 185.395 79.6033 185.395 79.762C185.395 79.9433 185.157 80.034 184.681 80.034C184.613 80.034 184.205 80.0227 183.457 80C182.732 79.9547 182.086 79.932 181.519 79.932H181.213L180.907 79.966L180.533 80H180.465C180.103 80 179.921 79.932 179.921 79.796C179.921 79.6373 180.069 79.5467 180.363 79.524C180.771 79.5013 181.043 79.4787 181.179 79.456C181.565 79.388 181.814 79.286 181.927 79.15C182.063 79.082 182.619 77.79 183.593 75.274C183.979 74.254 184.353 73.302 184.715 72.418C184.851 72.1007 184.942 71.8627 184.987 71.704C185.033 71.5453 185.123 71.3073 185.259 70.99C185.645 70.0607 186.189 68.6553 186.891 66.774L187.401 65.346L187.639 64.734C187.775 64.394 187.911 64.224 188.047 64.224C188.115 64.224 188.263 64.5413 188.489 65.176C189.169 66.8307 190.926 71.2053 193.759 78.3C194.031 79.0027 194.292 79.3767 194.541 79.422C194.609 79.4447 194.972 79.4787 195.629 79.524C196.06 79.5467 196.275 79.6487 196.275 79.83ZM189.373 74.458L187.163 68.644C186.619 70.004 185.871 71.942 184.919 74.458H189.373ZM206.831 75.648C206.831 76.9173 206.287 78.0053 205.199 78.912C204.111 79.8187 202.797 80.272 201.255 80.272C200.099 80.272 198.909 79.9093 197.685 79.184C197.549 79.1387 197.459 79.116 197.413 79.116C197.277 79.116 197.198 79.2293 197.175 79.456C197.153 79.6827 197.119 79.8753 197.073 80.034C197.028 80.2153 196.915 80.306 196.733 80.306C196.507 80.306 196.393 80.1927 196.393 79.966C196.393 79.9207 196.427 79.5807 196.495 78.946C196.563 78.3113 196.597 77.7673 196.597 77.314C196.597 77.11 196.586 76.8267 196.563 76.464C196.541 76.0787 196.529 75.784 196.529 75.58C196.529 75.1493 196.643 74.934 196.869 74.934C197.096 74.934 197.266 75.2853 197.379 75.988C197.81 78.4813 199.147 79.728 201.391 79.728C203.295 79.728 204.247 78.776 204.247 76.872C204.247 76.0333 204.021 75.3533 203.567 74.832C203.114 74.3107 202.23 73.7213 200.915 73.064C199.193 72.2027 198.093 71.5227 197.617 71.024C197.005 70.3667 196.699 69.5507 196.699 68.576C196.699 67.3293 197.153 66.3093 198.059 65.516C198.966 64.7 200.111 64.292 201.493 64.292C202.355 64.292 203.273 64.5527 204.247 65.074C204.361 65.142 204.451 65.176 204.519 65.176C204.678 65.176 204.78 65.0173 204.825 64.7C204.871 64.36 205.007 64.19 205.233 64.19C205.46 64.19 205.573 64.3033 205.573 64.53C205.573 64.5753 205.562 64.666 205.539 64.802C205.494 65.1647 205.471 65.6293 205.471 66.196C205.471 66.536 205.505 67.148 205.573 68.032C205.596 68.1227 205.607 68.2247 205.607 68.338C205.607 68.61 205.517 68.746 205.335 68.746C205.131 68.746 204.984 68.542 204.893 68.134C204.689 67.1367 204.27 66.3433 203.635 65.754C203.023 65.142 202.298 64.836 201.459 64.836C199.827 64.836 199.011 65.7087 199.011 67.454C199.011 68.2247 199.227 68.8593 199.657 69.358C199.884 69.63 200.133 69.8453 200.405 70.004C200.677 70.1627 201.471 70.5593 202.785 71.194C204.259 71.9193 205.301 72.622 205.913 73.302C206.525 73.9593 206.831 74.7413 206.831 75.648Z" fill="#871829"/>
</svg>
