<svg width="189" height="27" viewBox="0 0 189 27" fill="none" xmlns="http://www.w3.org/2000/svg">
<path d="M15.696 13.464C15.696 16.28 14.712 18.472 12.744 20.04C11.304 21.192 9.376 21.768 6.96 21.768C6.896 21.768 6.608 21.76 6.096 21.744C5.6 21.728 4.872 21.72 3.912 21.72H2.712L0.816 21.744C0.704 21.76 0.584 21.768 0.456 21.768C0.152 21.768 0 21.688 0 21.528C0 21.384 0.256 21.312 0.768 21.312C1.424 21.312 1.832 21.192 1.992 20.952C2.056 20.84 2.088 20.536 2.088 20.04V7.104C2.088 6.32 2.024 5.864 1.896 5.736C1.784 5.608 1.376 5.544 0.672 5.544C0.304 5.544 0.12 5.456 0.12 5.28C0.12 5.152 0.256 5.088 0.528 5.088C0.512 5.088 0.688 5.096 1.056 5.112C1.424 5.128 1.784 5.136 2.136 5.136H4.704C7.584 5.136 9.624 5.336 10.824 5.736C12.28 6.216 13.456 7.168 14.352 8.592C15.248 10 15.696 11.624 15.696 13.464ZM13.008 13.368C13.008 10.712 12.488 8.768 11.448 7.536C10.408 6.288 8.784 5.664 6.576 5.664C5.504 5.664 4.856 5.776 4.632 6C4.536 6.112 4.488 6.496 4.488 7.152V19.92C4.488 20.368 4.496 20.64 4.512 20.736C4.544 20.832 4.616 20.912 4.728 20.976C5.112 21.168 5.92 21.264 7.152 21.264C8.88 21.264 10.272 20.656 11.328 19.44C12.448 18.16 13.008 16.136 13.008 13.368Z" fill="#871829"/>
<path d="M27.9317 21.648C27.9317 21.744 27.7717 21.792 27.4517 21.792H27.2837L25.7957 21.744H25.1237C24.8517 21.744 24.4757 21.752 23.9957 21.768L23.2757 21.792L22.8437 21.816H22.7237C22.4357 21.816 22.2917 21.752 22.2917 21.624C22.2917 21.496 22.5797 21.424 23.1557 21.408C23.8437 21.392 24.1877 21.312 24.1877 21.168C24.1877 21.136 24.1397 20.984 24.0437 20.712C24.0117 20.584 23.8277 20.048 23.4917 19.104L23.2037 18.288H19.7717C19.1157 19.936 18.7877 20.888 18.7877 21.144C18.7877 21.288 18.8837 21.368 19.0757 21.384L19.3877 21.408H19.7477L19.9637 21.432C20.1557 21.432 20.2517 21.488 20.2517 21.6C20.2517 21.728 20.0837 21.792 19.7477 21.792C19.6997 21.792 19.4117 21.784 18.8837 21.768C18.3717 21.736 17.9157 21.72 17.5157 21.72H17.2997L17.0837 21.744L16.8197 21.768H16.7717C16.5157 21.768 16.3877 21.72 16.3877 21.624C16.3877 21.512 16.4917 21.448 16.6997 21.432C16.9877 21.416 17.1797 21.4 17.2757 21.384C17.5477 21.336 17.7237 21.264 17.8037 21.168C17.8997 21.12 18.2917 20.208 18.9797 18.432C19.2517 17.712 19.5157 17.04 19.7717 16.416C19.8677 16.192 19.9317 16.024 19.9637 15.912C19.9957 15.8 20.0597 15.632 20.1557 15.408C20.4277 14.752 20.8117 13.76 21.3077 12.432L21.6677 11.424L21.8357 10.992C21.9317 10.752 22.0277 10.632 22.1237 10.632C22.1717 10.632 22.2757 10.856 22.4357 11.304C22.9157 12.472 24.1557 15.56 26.1557 20.568C26.3477 21.064 26.5317 21.328 26.7077 21.36C26.7557 21.376 27.0117 21.4 27.4757 21.432C27.7797 21.448 27.9317 21.52 27.9317 21.648ZM23.0597 17.856L21.4997 13.752C21.1157 14.712 20.5877 16.08 19.9157 17.856H23.0597Z" fill="#871829"/>
<path d="M38.2631 11.04C38.2631 11.168 38.0871 11.232 37.7351 11.232C37.6871 11.232 37.5751 11.224 37.3991 11.208H37.1351C36.9911 11.208 36.9031 11.24 36.8711 11.304C36.8551 11.368 36.8471 11.584 36.8471 11.952V20.76C36.8471 21.336 36.8391 21.672 36.8231 21.768C36.8071 21.864 36.7351 21.912 36.6071 21.912C36.4311 21.912 35.8631 21.248 34.9031 19.92C34.7911 19.744 34.6151 19.504 34.3751 19.2C34.3431 19.152 34.2551 19.032 34.1111 18.84C33.3111 17.784 31.8631 15.8 29.7671 12.888V20.448C29.7671 21.04 29.8471 21.352 30.0071 21.384C30.1831 21.416 30.4951 21.432 30.9431 21.432H31.0391C31.2311 21.432 31.3271 21.488 31.3271 21.6C31.3271 21.728 31.1511 21.792 30.7991 21.792C30.7351 21.792 30.4711 21.776 30.0071 21.744C29.7671 21.728 29.5511 21.72 29.3591 21.72C29.1991 21.72 29.0391 21.728 28.8791 21.744C28.5751 21.776 28.2471 21.792 27.8951 21.792C27.6391 21.792 27.5111 21.728 27.5111 21.6C27.5111 21.488 27.6631 21.432 27.9671 21.432H28.1831L28.4951 21.408C28.8791 21.376 29.0791 21.304 29.0951 21.192C29.1111 21.128 29.1191 20.896 29.1191 20.496V13.896C29.1191 12.696 29.0471 11.976 28.9031 11.736C28.7111 11.416 28.3351 11.256 27.7751 11.256C27.3751 11.256 27.1751 11.184 27.1751 11.04C27.1751 10.928 27.2791 10.872 27.4871 10.872H27.5831L28.9031 10.896C28.9671 10.896 29.0711 10.896 29.2151 10.896C29.3751 10.88 29.5191 10.872 29.6471 10.872H30.5351L36.1991 18.648V11.976C36.1991 11.576 36.1831 11.344 36.1511 11.28C36.1191 11.216 35.9911 11.184 35.7671 11.184C35.5591 11.184 35.3911 11.192 35.2631 11.208H35.1191C34.8151 11.208 34.6631 11.144 34.6631 11.016C34.6631 10.936 34.7351 10.888 34.8791 10.872C35.0391 10.856 35.5831 10.848 36.5111 10.848C37.3911 10.848 37.9031 10.856 38.0471 10.872C38.1911 10.888 38.2631 10.944 38.2631 11.04Z" fill="#871829"/>
<path d="M43.8218 21.624C43.8218 21.72 43.7498 21.768 43.6058 21.768H43.3657L42.8618 21.744H42.2378C42.1098 21.744 41.9738 21.736 41.8298 21.72C41.7018 21.72 41.6138 21.72 41.5658 21.72C41.4058 21.72 41.1018 21.728 40.6538 21.744C40.2218 21.76 39.8938 21.768 39.6698 21.768H39.5737C39.3017 21.768 39.1657 21.72 39.1657 21.624C39.1657 21.496 39.3417 21.424 39.6937 21.408C40.1737 21.376 40.4218 21.32 40.4378 21.24C40.4698 21.16 40.4857 20.816 40.4857 20.208V12.48C40.4857 11.856 40.4698 11.496 40.4378 11.4C40.4058 11.288 40.2858 11.224 40.0778 11.208L39.5978 11.184H39.3577C39.2137 11.184 39.1418 11.128 39.1418 11.016C39.1418 10.904 39.2458 10.848 39.4538 10.848C39.4378 10.848 39.4858 10.848 39.5978 10.848C39.7098 10.864 39.8858 10.872 40.1258 10.872H41.8537C41.9497 10.872 42.0938 10.864 42.2858 10.848C42.4778 10.848 42.6538 10.848 42.8138 10.848H43.4137C43.6697 10.848 43.7977 10.912 43.7977 11.04C43.7977 11.136 43.5258 11.192 42.9818 11.208C42.7578 11.208 42.6217 11.248 42.5737 11.328C42.5257 11.392 42.5018 11.608 42.5018 11.976V21.024C42.5018 21.184 42.5577 21.288 42.6698 21.336C42.7977 21.384 43.0857 21.424 43.5337 21.456C43.7257 21.472 43.8218 21.528 43.8218 21.624Z" fill="#871829"/>
<path d="M54.0274 19.176C54.0274 19.192 54.0194 19.296 54.0034 19.488C53.9874 19.664 53.9794 19.824 53.9794 19.968L53.9554 21.336C53.9554 21.496 53.9634 21.672 53.9794 21.864L49.9954 21.792L45.4354 21.816C45.0994 21.816 44.9314 21.76 44.9314 21.648C44.9314 21.52 45.0274 21.456 45.2194 21.456C45.7314 21.456 46.0274 21.424 46.1074 21.36C46.2034 21.28 46.2514 21.016 46.2514 20.568V12.312C46.2514 11.656 46.1954 11.312 46.0834 11.28C45.9714 11.232 45.6914 11.208 45.2434 11.208C45.0514 11.208 44.9554 11.152 44.9554 11.04C44.9554 10.912 45.0594 10.848 45.2674 10.848H45.8434C46.0034 10.848 46.1634 10.848 46.3234 10.848C46.4994 10.864 46.5874 10.872 46.5874 10.872H47.1874C47.2674 10.872 47.6674 10.864 48.3874 10.848C49.1234 10.848 50.0034 10.848 51.0274 10.848H52.4434C52.8594 10.848 53.2034 10.832 53.4754 10.8V10.968L53.4994 11.328C53.5314 11.568 53.5954 12.288 53.6914 13.488C53.7074 13.568 53.7154 13.664 53.7154 13.776C53.7154 13.984 53.6594 14.088 53.5474 14.088C53.4034 14.088 53.2994 13.928 53.2354 13.608C53.0114 12.392 52.5874 11.68 51.9634 11.472C51.6114 11.36 50.7794 11.304 49.4674 11.304H48.2434V15.792H48.8194C49.8434 15.792 50.4754 15.712 50.7154 15.552C50.9554 15.376 51.1154 14.912 51.1954 14.16C51.2434 13.712 51.3394 13.488 51.4834 13.488C51.6434 13.488 51.7234 13.648 51.7234 13.968C51.7234 14.16 51.7074 14.456 51.6754 14.856C51.6594 15.256 51.6514 15.56 51.6514 15.768C51.6514 16.808 51.6754 17.52 51.7234 17.904C51.7394 18.032 51.7474 18.136 51.7474 18.216C51.7474 18.472 51.6674 18.6 51.5074 18.6C51.3634 18.6 51.2674 18.4 51.2194 18C51.1234 17.136 50.9634 16.624 50.7394 16.464C50.5154 16.288 49.8834 16.2 48.8434 16.2H48.2434V21.384C50.5954 21.368 51.9794 21.304 52.3954 21.192C53.0354 21.016 53.4114 20.248 53.5234 18.888C53.5394 18.648 53.6274 18.528 53.7874 18.528C53.9474 18.528 54.0274 18.744 54.0274 19.176Z" fill="#871829"/>
<path d="M64.1312 19.608C64.1312 20.504 64.1152 21.256 64.0832 21.864C63.9872 21.88 63.8672 21.888 63.7232 21.888C63.7072 21.888 63.5792 21.872 63.3392 21.84C63.1152 21.824 62.8192 21.816 62.4512 21.816L61.3232 21.792L57.2192 21.744L55.2512 21.768C55.0432 21.768 54.9392 21.712 54.9392 21.6C54.9392 21.504 55.2512 21.432 55.8752 21.384C56.0512 21.368 56.1552 21.328 56.1872 21.264C56.2352 21.2 56.2592 21.024 56.2592 20.736V12.696C56.2592 11.8 56.1872 11.328 56.0432 11.28C55.9792 11.248 55.8352 11.232 55.6112 11.232C55.4032 11.232 55.2672 11.224 55.2032 11.208C55.0272 11.208 54.9392 11.144 54.9392 11.016C54.9392 10.904 55.0432 10.848 55.2512 10.848L58.5632 10.872C58.7392 10.856 58.9232 10.848 59.1152 10.848C59.4192 10.848 59.5712 10.92 59.5712 11.064C59.5712 11.16 59.3072 11.216 58.7792 11.232C58.5232 11.248 58.3712 11.304 58.3232 11.4C58.2752 11.496 58.2512 11.84 58.2512 12.432V21.336C58.8912 21.352 59.3552 21.36 59.6432 21.36C61.3712 21.36 62.4512 21.192 62.8832 20.856C63.2352 20.584 63.4592 20.008 63.5552 19.128C63.5872 18.744 63.6752 18.552 63.8192 18.552C64.0272 18.552 64.1312 18.904 64.1312 19.608Z" fill="#871829"/>
<path d="M77.9556 11.1445C77.604 10.3867 77.4282 9.67969 77.4282 9.02344C77.4282 8.28125 77.647 7.59375 78.0845 6.96094C78.522 6.32031 79.0767 5.80469 79.7485 5.41406C80.4282 5.02344 81.1313 4.82812 81.8579 4.82812C82.6704 4.82812 83.3462 5.05469 83.8853 5.50781C84.4321 5.95312 84.7056 6.48828 84.7056 7.11328C84.7056 7.58203 84.5728 8.01562 84.3071 8.41406C84.0493 8.8125 83.7759 9.01172 83.4868 9.01172C83.3462 9.01172 83.2759 8.9375 83.2759 8.78906C83.2759 8.73438 83.3149 8.61328 83.3931 8.42578C83.5181 8.12109 83.5806 7.8125 83.5806 7.5C83.5806 7.03125 83.3892 6.65234 83.0063 6.36328C82.6235 6.06641 82.1626 5.91797 81.6235 5.91797C80.7563 5.91797 79.9438 6.27734 79.186 6.99609C78.436 7.70703 78.061 8.52344 78.061 9.44531C78.061 9.85938 78.1157 10.2109 78.2251 10.5C78.3345 10.7812 78.4321 10.9648 78.5181 11.0508C78.6118 11.1367 78.7407 11.1797 78.9048 11.1797C79.9829 11.1797 80.522 11.4922 80.522 12.1172C80.522 12.2734 80.4634 12.4219 80.3462 12.5625C80.2368 12.7031 80.0728 12.7734 79.854 12.7734C79.6118 12.7734 79.3032 12.6133 78.9282 12.293C78.5298 11.9492 78.1392 11.7773 77.7563 11.7773C77.2642 11.7773 76.7954 12.0234 76.3501 12.5156C75.9126 13 75.6938 13.5781 75.6938 14.25C75.6938 15.5547 76.3423 16.7891 77.6392 17.9531C78.936 19.1094 80.5493 19.6875 82.479 19.6875C84.3071 19.6875 85.8696 19.2344 87.1665 18.3281C88.4712 17.4141 89.1235 16.3242 89.1235 15.0586C89.1235 14.2148 88.8032 13.4844 88.1626 12.8672C87.522 12.2422 86.6548 11.9297 85.561 11.9297C84.6782 11.9297 83.8892 12.1719 83.1938 12.6562C82.5063 13.1406 82.1626 13.7461 82.1626 14.4727C82.1626 14.9102 82.2876 15.2695 82.5376 15.5508C82.7876 15.832 83.0454 15.9727 83.311 15.9727C83.6157 15.9727 83.7681 15.8086 83.7681 15.4805L83.7563 15.3398C83.7485 15.2383 83.7446 15.168 83.7446 15.1289C83.7446 14.7852 83.8384 14.5039 84.0259 14.2852C84.2134 14.0586 84.4517 13.9453 84.7407 13.9453C85.0142 13.9453 85.2524 14.043 85.4556 14.2383C85.6587 14.4258 85.7603 14.6914 85.7603 15.0352C85.7603 15.5273 85.5884 15.9375 85.2446 16.2656C84.9087 16.5938 84.4751 16.7578 83.9438 16.7578C83.311 16.7578 82.7642 16.5352 82.3032 16.0898C81.8501 15.6367 81.6235 15.082 81.6235 14.4258C81.6235 13.4648 82.0259 12.5898 82.8306 11.8008C83.6353 11.0117 85.0962 10.6172 87.2134 10.6172C89.1118 10.6172 90.4907 10.3555 91.3501 9.83203C92.2095 9.31641 92.6392 8.53125 92.6392 7.47656C92.6392 6.85156 92.4478 6.33984 92.0649 5.94141C91.6821 5.53516 91.1978 5.33203 90.6118 5.33203C90.3228 5.33203 90.104 5.375 89.9556 5.46094C89.8149 5.53906 89.7446 5.66406 89.7446 5.83594C89.7446 5.94531 89.8149 6.10156 89.9556 6.30469C90.1353 6.5625 90.2251 6.8125 90.2251 7.05469C90.2251 7.34375 90.1118 7.59766 89.8853 7.81641C89.6665 8.03516 89.3931 8.14453 89.0649 8.14453C88.6743 8.14453 88.3774 8.01953 88.1743 7.76953C87.9712 7.51953 87.8696 7.22656 87.8696 6.89062C87.8696 6.35938 88.1274 5.88281 88.6431 5.46094C89.1665 5.03906 89.8306 4.82812 90.6353 4.82812C91.4634 4.82812 92.1509 5.13281 92.6978 5.74219C93.2524 6.34375 93.5298 7.07031 93.5298 7.92188C93.5298 8.72656 93.2915 9.46094 92.8149 10.125C92.3462 10.7891 91.7485 11.2578 91.022 11.5312C90.3032 11.8047 89.2915 11.9648 87.9868 12.0117C89.2368 12.8945 89.8618 14.0273 89.8618 15.4102C89.8618 16.4492 89.479 17.4531 88.7134 18.4219C87.9478 19.3906 87.0181 20.1094 85.9243 20.5781C84.8384 21.0469 83.5103 21.2812 81.9399 21.2812C80.6665 21.2812 79.6353 21.1445 78.8462 20.8711C78.0571 20.5898 77.3032 20.1836 76.5845 19.6523C75.8735 19.1211 75.311 18.4727 74.897 17.707C74.4907 16.9336 74.2876 16.1055 74.2876 15.2227C74.2876 14.1445 74.5962 13.2383 75.2134 12.5039C75.8306 11.7695 76.7446 11.3164 77.9556 11.1445Z" fill="#871829"/>
<path d="M111.211 17.16C111.211 18.536 110.683 19.712 109.627 20.688C108.587 21.648 107.331 22.128 105.859 22.128C104.995 22.128 103.963 21.864 102.763 21.336C102.443 21.192 102.203 21.12 102.043 21.12C101.851 21.12 101.731 21.352 101.683 21.816C101.667 22.056 101.563 22.176 101.371 22.176C101.211 22.176 101.131 22.08 101.131 21.888C101.131 21.76 101.139 21.664 101.155 21.6C101.283 20.624 101.347 19.72 101.347 18.888C101.347 18.728 101.331 18.28 101.299 17.544C101.283 17.448 101.275 17.32 101.275 17.16C101.275 16.92 101.371 16.8 101.563 16.8C101.723 16.8 101.835 16.992 101.899 17.376C102.315 20.224 103.667 21.648 105.955 21.648C106.931 21.648 107.683 21.376 108.211 20.832C108.755 20.272 109.027 19.488 109.027 18.48C109.027 17.584 108.763 16.824 108.235 16.2C107.723 15.56 106.835 14.928 105.571 14.304C104.051 13.552 102.995 12.824 102.403 12.12C101.811 11.416 101.515 10.544 101.515 9.504C101.515 8.176 101.939 7.08 102.787 6.216C103.651 5.352 104.739 4.92 106.051 4.92C106.595 4.92 107.347 5.104 108.307 5.472C108.643 5.6 108.891 5.664 109.051 5.664C109.227 5.664 109.339 5.632 109.387 5.568C109.451 5.504 109.507 5.336 109.555 5.064C109.587 4.904 109.675 4.824 109.819 4.824C109.979 4.824 110.059 4.92 110.059 5.112C110.059 5.24 110.051 5.336 110.035 5.4C109.987 5.784 109.963 6.248 109.963 6.792C109.963 7.56 110.003 8.168 110.083 8.616L110.107 9C110.123 9.176 110.051 9.264 109.891 9.264C109.715 9.264 109.595 9.08 109.531 8.712C109.355 7.768 108.939 6.984 108.283 6.36C107.627 5.72 106.891 5.4 106.075 5.4C105.275 5.4 104.635 5.656 104.155 6.168C103.691 6.68 103.459 7.376 103.459 8.256C103.459 9.28 103.803 10.104 104.491 10.728C104.875 11.08 105.707 11.576 106.987 12.216C108.491 12.968 109.571 13.736 110.227 14.52C110.883 15.288 111.211 16.168 111.211 17.16Z" fill="#871829"/>
<path d="M121.556 19.248C121.556 19.264 121.548 19.368 121.532 19.56C121.516 19.736 121.508 19.896 121.508 20.04L121.484 21.408C121.484 21.568 121.492 21.744 121.508 21.936L117.524 21.864L112.964 21.888C112.628 21.888 112.46 21.832 112.46 21.72C112.46 21.592 112.556 21.528 112.748 21.528C113.26 21.528 113.556 21.496 113.636 21.432C113.732 21.352 113.78 21.088 113.78 20.64V12.384C113.78 11.728 113.724 11.384 113.612 11.352C113.5 11.304 113.22 11.28 112.772 11.28C112.58 11.28 112.484 11.224 112.484 11.112C112.484 10.984 112.588 10.92 112.796 10.92H113.372C113.532 10.92 113.692 10.92 113.852 10.92C114.028 10.936 114.116 10.944 114.116 10.944H114.716C114.796 10.944 115.196 10.936 115.916 10.92C116.652 10.92 117.532 10.92 118.556 10.92H119.972C120.388 10.92 120.732 10.904 121.004 10.872V11.04L121.028 11.4C121.06 11.64 121.124 12.36 121.22 13.56C121.236 13.64 121.244 13.736 121.244 13.848C121.244 14.056 121.188 14.16 121.076 14.16C120.932 14.16 120.828 14 120.764 13.68C120.54 12.464 120.116 11.752 119.492 11.544C119.14 11.432 118.308 11.376 116.996 11.376H115.772V15.864H116.348C117.372 15.864 118.004 15.784 118.244 15.624C118.484 15.448 118.644 14.984 118.724 14.232C118.772 13.784 118.868 13.56 119.012 13.56C119.172 13.56 119.252 13.72 119.252 14.04C119.252 14.232 119.236 14.528 119.204 14.928C119.188 15.328 119.18 15.632 119.18 15.84C119.18 16.88 119.204 17.592 119.252 17.976C119.268 18.104 119.276 18.208 119.276 18.288C119.276 18.544 119.196 18.672 119.036 18.672C118.892 18.672 118.796 18.472 118.748 18.072C118.652 17.208 118.492 16.696 118.268 16.536C118.044 16.36 117.412 16.272 116.372 16.272H115.772V21.456C118.124 21.44 119.508 21.376 119.924 21.264C120.564 21.088 120.94 20.32 121.052 18.96C121.068 18.72 121.156 18.6 121.316 18.6C121.476 18.6 121.556 18.816 121.556 19.248Z" fill="#871829"/>
<path d="M131.252 18.984C131.252 19.72 130.98 20.328 130.436 20.808C129.908 21.288 129.172 21.6 128.228 21.744C127.668 21.824 126.428 21.864 124.508 21.864C123.66 21.864 123.172 21.856 123.044 21.84H122.996L122.66 21.864C122.548 21.88 122.492 21.824 122.492 21.696C122.492 21.6 122.524 21.544 122.588 21.528C122.652 21.512 122.844 21.504 123.164 21.504C123.484 21.504 123.668 21.472 123.716 21.408C123.764 21.344 123.788 21.144 123.788 20.808V12.144C123.788 11.728 123.764 11.488 123.716 11.424C123.668 11.344 123.412 11.296 122.948 11.28C122.612 11.264 122.444 11.208 122.444 11.112C122.444 10.984 122.62 10.92 122.972 10.92H123.38C123.556 10.92 124.028 10.928 124.796 10.944L125.948 10.968C127.052 10.984 127.748 11.008 128.036 11.04C128.42 11.072 128.772 11.144 129.092 11.256C130.244 11.672 130.82 12.4 130.82 13.44C130.82 14.896 129.7 15.76 127.46 16.032L127.484 16.104C128.652 16.12 129.572 16.392 130.244 16.92C130.916 17.432 131.252 18.12 131.252 18.984ZM128.66 13.584C128.66 12.528 128.42 11.864 127.94 11.592C127.668 11.432 127.212 11.352 126.572 11.352C126.3 11.352 126.1 11.36 125.972 11.376L125.78 11.4V15.864C126.644 15.848 127.236 15.768 127.556 15.624C128.292 15.288 128.66 14.608 128.66 13.584ZM129.164 18.792C129.164 17.096 128.204 16.248 126.284 16.248H125.78V21.072C125.78 21.264 125.82 21.384 125.9 21.432C125.98 21.464 126.212 21.48 126.596 21.48C128.308 21.48 129.164 20.584 129.164 18.792Z" fill="#871829"/>
<path d="M143.203 21.72C143.203 21.816 143.043 21.864 142.723 21.864H142.555L141.067 21.816H140.395C140.123 21.816 139.747 21.824 139.267 21.84L138.547 21.864L138.115 21.888H137.995C137.707 21.888 137.563 21.824 137.563 21.696C137.563 21.568 137.851 21.496 138.427 21.48C139.115 21.464 139.459 21.384 139.459 21.24C139.459 21.208 139.411 21.056 139.315 20.784C139.283 20.656 139.099 20.12 138.763 19.176L138.475 18.36H135.043C134.387 20.008 134.059 20.96 134.059 21.216C134.059 21.36 134.155 21.44 134.347 21.456L134.659 21.48H135.019L135.235 21.504C135.427 21.504 135.523 21.56 135.523 21.672C135.523 21.8 135.355 21.864 135.019 21.864C134.971 21.864 134.683 21.856 134.155 21.84C133.643 21.808 133.187 21.792 132.787 21.792H132.571L132.355 21.816L132.091 21.84H132.043C131.787 21.84 131.659 21.792 131.659 21.696C131.659 21.584 131.763 21.52 131.971 21.504C132.259 21.488 132.451 21.472 132.547 21.456C132.819 21.408 132.995 21.336 133.075 21.24C133.171 21.192 133.563 20.28 134.251 18.504C134.523 17.784 134.787 17.112 135.043 16.488C135.139 16.264 135.203 16.096 135.235 15.984C135.267 15.872 135.331 15.704 135.427 15.48C135.699 14.824 136.083 13.832 136.579 12.504L136.939 11.496L137.107 11.064C137.203 10.824 137.299 10.704 137.395 10.704C137.443 10.704 137.547 10.928 137.707 11.376C138.187 12.544 139.427 15.632 141.427 20.64C141.619 21.136 141.803 21.4 141.979 21.432C142.027 21.448 142.283 21.472 142.747 21.504C143.051 21.52 143.203 21.592 143.203 21.72ZM138.331 17.928L136.771 13.824C136.387 14.784 135.859 16.152 135.187 17.928H138.331Z" fill="#871829"/>
<path d="M150.654 18.768C150.654 19.664 150.27 20.432 149.502 21.072C148.734 21.712 147.806 22.032 146.718 22.032C145.902 22.032 145.062 21.776 144.198 21.264C144.102 21.232 144.038 21.216 144.006 21.216C143.91 21.216 143.854 21.296 143.838 21.456C143.822 21.616 143.798 21.752 143.766 21.864C143.734 21.992 143.654 22.056 143.526 22.056C143.366 22.056 143.286 21.976 143.286 21.816C143.286 21.784 143.31 21.544 143.358 21.096C143.406 20.648 143.43 20.264 143.43 19.944C143.43 19.8 143.422 19.6 143.406 19.344C143.39 19.072 143.382 18.864 143.382 18.72C143.382 18.416 143.462 18.264 143.622 18.264C143.782 18.264 143.902 18.512 143.982 19.008C144.286 20.768 145.23 21.648 146.814 21.648C148.158 21.648 148.83 20.976 148.83 19.632C148.83 19.04 148.67 18.56 148.35 18.192C148.03 17.824 147.406 17.408 146.478 16.944C145.262 16.336 144.486 15.856 144.15 15.504C143.718 15.04 143.502 14.464 143.502 13.776C143.502 12.896 143.822 12.176 144.462 11.616C145.102 11.04 145.91 10.752 146.886 10.752C147.494 10.752 148.142 10.936 148.83 11.304C148.91 11.352 148.974 11.376 149.022 11.376C149.134 11.376 149.206 11.264 149.238 11.04C149.27 10.8 149.366 10.68 149.526 10.68C149.686 10.68 149.766 10.76 149.766 10.92C149.766 10.952 149.758 11.016 149.742 11.112C149.71 11.368 149.694 11.696 149.694 12.096C149.694 12.336 149.718 12.768 149.766 13.392C149.782 13.456 149.79 13.528 149.79 13.608C149.79 13.8 149.726 13.896 149.598 13.896C149.454 13.896 149.35 13.752 149.286 13.464C149.142 12.76 148.846 12.2 148.398 11.784C147.966 11.352 147.454 11.136 146.862 11.136C145.71 11.136 145.134 11.752 145.134 12.984C145.134 13.528 145.286 13.976 145.59 14.328C145.75 14.52 145.926 14.672 146.118 14.784C146.31 14.896 146.87 15.176 147.798 15.624C148.838 16.136 149.574 16.632 150.006 17.112C150.438 17.576 150.654 18.128 150.654 18.768Z" fill="#871829"/>
<path d="M161.078 13.92C161.078 14.144 160.982 14.256 160.79 14.256C160.582 14.256 160.47 14.104 160.454 13.8C160.406 13.144 160.27 12.608 160.046 12.192C159.742 11.616 159.046 11.328 157.958 11.328C157.798 11.328 157.55 11.336 157.214 11.352V21C157.214 21.304 157.446 21.464 157.91 21.48C158.374 21.496 158.606 21.56 158.606 21.672C158.606 21.784 158.47 21.84 158.198 21.84H158.03C157.886 21.84 157.662 21.832 157.358 21.816C157.054 21.816 156.838 21.816 156.71 21.816C156.678 21.816 156.494 21.816 156.158 21.816C155.822 21.832 155.39 21.84 154.862 21.84H154.286C153.966 21.84 153.806 21.784 153.806 21.672C153.806 21.56 154.07 21.496 154.598 21.48C154.79 21.48 154.918 21.464 154.982 21.432C155.11 21.4 155.182 21.32 155.198 21.192C155.214 21.048 155.222 20.64 155.222 19.968V11.352C153.974 11.336 153.158 11.464 152.774 11.736C152.406 12.008 152.158 12.648 152.03 13.656C151.982 14.024 151.878 14.208 151.718 14.208C151.574 14.208 151.502 14.024 151.502 13.656C151.502 13.192 151.574 12.28 151.718 10.92L157.31 10.968C157.806 10.968 158.814 10.952 160.334 10.92C160.462 10.92 160.63 10.888 160.838 10.824L160.862 11.328L160.934 12.192L161.006 13.2L161.054 13.632C161.07 13.776 161.078 13.872 161.078 13.92Z" fill="#871829"/>
<path d="M166.57 21.696C166.57 21.792 166.498 21.84 166.354 21.84H166.114L165.61 21.816H164.986C164.858 21.816 164.722 21.808 164.578 21.792C164.45 21.792 164.362 21.792 164.314 21.792C164.154 21.792 163.85 21.8 163.402 21.816C162.97 21.832 162.642 21.84 162.418 21.84H162.322C162.05 21.84 161.914 21.792 161.914 21.696C161.914 21.568 162.09 21.496 162.442 21.48C162.922 21.448 163.17 21.392 163.186 21.312C163.218 21.232 163.234 20.888 163.234 20.28V12.552C163.234 11.928 163.218 11.568 163.186 11.472C163.154 11.36 163.034 11.296 162.826 11.28L162.346 11.256H162.106C161.962 11.256 161.89 11.2 161.89 11.088C161.89 10.976 161.994 10.92 162.202 10.92C162.186 10.92 162.234 10.92 162.346 10.92C162.458 10.936 162.634 10.944 162.874 10.944H164.602C164.698 10.944 164.842 10.936 165.034 10.92C165.226 10.92 165.402 10.92 165.562 10.92H166.162C166.418 10.92 166.546 10.984 166.546 11.112C166.546 11.208 166.274 11.264 165.73 11.28C165.506 11.28 165.37 11.32 165.322 11.4C165.274 11.464 165.25 11.68 165.25 12.048V21.096C165.25 21.256 165.306 21.36 165.418 21.408C165.546 21.456 165.834 21.496 166.282 21.528C166.474 21.544 166.57 21.6 166.57 21.696Z" fill="#871829"/>
<path d="M178.359 21.72C178.359 21.816 178.199 21.864 177.879 21.864H177.711L176.223 21.816H175.551C175.279 21.816 174.903 21.824 174.423 21.84L173.703 21.864L173.271 21.888H173.151C172.863 21.888 172.719 21.824 172.719 21.696C172.719 21.568 173.007 21.496 173.583 21.48C174.271 21.464 174.615 21.384 174.615 21.24C174.615 21.208 174.567 21.056 174.471 20.784C174.439 20.656 174.255 20.12 173.919 19.176L173.631 18.36H170.199C169.543 20.008 169.215 20.96 169.215 21.216C169.215 21.36 169.311 21.44 169.503 21.456L169.815 21.48H170.175L170.391 21.504C170.583 21.504 170.679 21.56 170.679 21.672C170.679 21.8 170.511 21.864 170.175 21.864C170.127 21.864 169.839 21.856 169.311 21.84C168.799 21.808 168.343 21.792 167.943 21.792H167.727L167.511 21.816L167.247 21.84H167.199C166.943 21.84 166.815 21.792 166.815 21.696C166.815 21.584 166.919 21.52 167.127 21.504C167.415 21.488 167.607 21.472 167.703 21.456C167.975 21.408 168.151 21.336 168.231 21.24C168.327 21.192 168.719 20.28 169.407 18.504C169.679 17.784 169.943 17.112 170.199 16.488C170.295 16.264 170.359 16.096 170.391 15.984C170.423 15.872 170.487 15.704 170.583 15.48C170.855 14.824 171.239 13.832 171.735 12.504L172.095 11.496L172.263 11.064C172.359 10.824 172.455 10.704 172.551 10.704C172.599 10.704 172.703 10.928 172.863 11.376C173.343 12.544 174.583 15.632 176.583 20.64C176.775 21.136 176.959 21.4 177.135 21.432C177.183 21.448 177.439 21.472 177.903 21.504C178.207 21.52 178.359 21.592 178.359 21.72ZM173.487 17.928L171.927 13.824C171.543 14.784 171.015 16.152 170.343 17.928H173.487Z" fill="#871829"/>
<path d="M188.691 11.112C188.691 11.24 188.515 11.304 188.163 11.304C188.115 11.304 188.003 11.296 187.827 11.28H187.563C187.419 11.28 187.331 11.312 187.299 11.376C187.283 11.44 187.275 11.656 187.275 12.024V20.832C187.275 21.408 187.267 21.744 187.251 21.84C187.235 21.936 187.163 21.984 187.035 21.984C186.859 21.984 186.291 21.32 185.331 19.992C185.219 19.816 185.043 19.576 184.803 19.272C184.771 19.224 184.683 19.104 184.539 18.912C183.739 17.856 182.291 15.872 180.195 12.96V20.52C180.195 21.112 180.275 21.424 180.435 21.456C180.611 21.488 180.923 21.504 181.371 21.504H181.467C181.659 21.504 181.755 21.56 181.755 21.672C181.755 21.8 181.579 21.864 181.227 21.864C181.163 21.864 180.899 21.848 180.435 21.816C180.195 21.8 179.979 21.792 179.787 21.792C179.627 21.792 179.467 21.8 179.307 21.816C179.003 21.848 178.675 21.864 178.323 21.864C178.067 21.864 177.939 21.8 177.939 21.672C177.939 21.56 178.091 21.504 178.395 21.504H178.611L178.923 21.48C179.307 21.448 179.507 21.376 179.523 21.264C179.539 21.2 179.547 20.968 179.547 20.568V13.968C179.547 12.768 179.475 12.048 179.331 11.808C179.139 11.488 178.763 11.328 178.203 11.328C177.803 11.328 177.603 11.256 177.603 11.112C177.603 11 177.707 10.944 177.915 10.944H178.011L179.331 10.968C179.395 10.968 179.499 10.968 179.643 10.968C179.803 10.952 179.947 10.944 180.075 10.944H180.963L186.627 18.72V12.048C186.627 11.648 186.611 11.416 186.579 11.352C186.547 11.288 186.419 11.256 186.195 11.256C185.987 11.256 185.819 11.264 185.691 11.28H185.547C185.243 11.28 185.091 11.216 185.091 11.088C185.091 11.008 185.163 10.96 185.307 10.944C185.467 10.928 186.011 10.92 186.939 10.92C187.819 10.92 188.331 10.928 188.475 10.944C188.619 10.96 188.691 11.016 188.691 11.112Z" fill="#871829"/>
</svg>
