<svg width="32" height="32" viewBox="0 0 32 32" fill="none" xmlns="http://www.w3.org/2000/svg">
<g id="Frame 31">
<g id="Rectangle 2">
<mask id="path-1-inside-1_35_5261" fill="white">
<path d="M0 0H32V32H0V0Z"/>
</mask>
<path d="M0 0H32V32H0V0Z" fill="#F5E9DB"/>
<path d="M0 0V-1H-1V0H0ZM32 0H34V-1H32V0ZM32 32V34H34V32H32ZM0 32H-1V34H0V32ZM0 1H32V-1H0V1ZM30 0V32H34V0H30ZM32 30H0V34H32V30ZM1 32V0H-1V32H1Z" fill="#871829" mask="url(#path-1-inside-1_35_5261)"/>
</g>
<path id="Vector" d="M15.3564 22.897H23.7127" stroke="#871829" stroke-linecap="round" stroke-linejoin="round"/>
<path id="Vector_2" d="M19.5345 7.57689C19.9039 7.20751 20.4049 7 20.9273 7C21.1859 7 21.442 7.05095 21.681 7.14993C21.92 7.24891 22.1371 7.39399 22.32 7.57689C22.5029 7.75978 22.648 7.97691 22.747 8.21587C22.8459 8.45484 22.8969 8.71096 22.8969 8.96961C22.8969 9.22827 22.8459 9.48439 22.747 9.72335C22.648 9.96232 22.5029 10.1794 22.32 10.3623L10.7139 21.9684L7 22.8969L7.92848 19.1829L19.5345 7.57689Z" stroke="#871829" stroke-linecap="round" stroke-linejoin="round"/>
<line id="Line 5" x1="8.35355" y1="18.6464" x2="11.3536" y2="21.6464" stroke="#871829"/>
</g>
</svg>
